<?xml version="1.0" encoding="utf-8"?>
<svg viewBox="0 0 500 500" xmlns="http://www.w3.org/2000/svg">
  <g id="freepik--background-complete--inject-82">
    <path d="M135.5,451.79l32,14.32,232.13,1.51V435.1L168.56,434l-33,13.71A2.24,2.24,0,0,0,135.5,451.79Z" style="fill:#ebebeb"/>
    <path d="M168.56,434a2.42,2.42,0,0,1-.84,3.72,7.27,7.27,0,0,1,1,13.68A8.5,8.5,0,0,1,167.27,466l-30.88-13.8a2.66,2.66,0,0,1,.07-4.89Z" style="fill:#f5f5f5"/>
    <path d="M145.55,456.28s6.68-3.88.7-13L134.69,448a1.83,1.83,0,0,0-.05,3.37Z" style="fill:#e0e0e0"/>
    <path d="M168.76,451.36l230.91.07v16.19l-232.13-1.51-.27-.12a8.14,8.14,0,0,0,2.95-2.21,8.7,8.7,0,0,0,2-4.42,8.44,8.44,0,0,0-3.44-8Z" style="fill:#e0e0e0"/>
    <path d="M167.72,437.68l232,1.32v-3.9L168.56,434a2.58,2.58,0,0,1-.32,3.43A2.53,2.53,0,0,1,167.72,437.68Z" style="fill:#e0e0e0"/>
    <path d="M160.93,455.54a.64.64,0,0,0,.44,0,.89.89,0,0,0,.41-1.11,3.31,3.31,0,0,0-1.36-1.52,2,2,0,0,0-1.2-.33,1.35,1.35,0,0,0-1.15.67,1.91,1.91,0,0,0,0,1.52,6.17,6.17,0,0,0,.85,1.51,9.16,9.16,0,0,0,2.8,2.58,2.33,2.33,0,0,0,1.92.26,2.13,2.13,0,0,0,1.22-1.58,5.74,5.74,0,0,0-1.44-4.17,7.93,7.93,0,0,0-7.77-2.93,2.08,2.08,0,0,0-1.38,1.22,4,4,0,0,0-.22,1.82,11.31,11.31,0,0,0,.87,3.25,12.26,12.26,0,0,0,2.75,4c.42.4.76.68,1,.87a4.46,4.46,0,0,1,.37.29,8.38,8.38,0,0,1-1.43-1.09,12.29,12.29,0,0,1-2.84-4,11.39,11.39,0,0,1-.9-3.3,4.09,4.09,0,0,1,.22-1.91,2.28,2.28,0,0,1,1.5-1.34,8.26,8.26,0,0,1,9.19,5,4.23,4.23,0,0,1,.29,2.3,2.33,2.33,0,0,1-1.35,1.75,2.56,2.56,0,0,1-2.1-.29,9.33,9.33,0,0,1-2.85-2.65,6.18,6.18,0,0,1-.87-1.56,2.08,2.08,0,0,1,0-1.66,1.53,1.53,0,0,1,1.28-.74,2.24,2.24,0,0,1,1.28.37,3.49,3.49,0,0,1,1.38,1.61,1,1,0,0,1-.48,1.17A.49.49,0,0,1,160.93,455.54Z" style="fill:#fff"/>
    <path d="M153.07,440.77a10.32,10.32,0,0,0,.53,1.17,8.66,8.66,0,0,0,2.27,2.61,22.24,22.24,0,0,0,4.44,2.59,19.14,19.14,0,0,1,5.38,3.37,11.14,11.14,0,0,1,3,5.59,10.91,10.91,0,0,1-1.75,8.38,8.17,8.17,0,0,1-.82,1,1.25,1.25,0,0,1,.19-.27,9.42,9.42,0,0,0,.56-.78,11.25,11.25,0,0,0,1.44-3.16,10.86,10.86,0,0,0,.18-5.13,11,11,0,0,0-3-5.47,19.33,19.33,0,0,0-5.31-3.35,21.52,21.52,0,0,1-4.45-2.65,8.4,8.4,0,0,1-2.25-2.69A5,5,0,0,1,153.07,440.77Z" style="fill:#fff"/>
    <path d="M161.49,436.75a3.35,3.35,0,0,0,0,2.38,19.28,19.28,0,0,0,3.31,4.85A32.53,32.53,0,0,0,169.1,448c.59.47,1.09.83,1.43,1.08a3.57,3.57,0,0,1,.52.4,4.73,4.73,0,0,1-.57-.33c-.35-.23-.87-.57-1.47-1a28.34,28.34,0,0,1-4.34-4,30.19,30.19,0,0,1-2-2.59,9.55,9.55,0,0,1-1.28-2.36,3.36,3.36,0,0,1-.13-1.81A2.09,2.09,0,0,1,161.49,436.75Z" style="fill:#fff"/>
    <path d="M173,445.44a6.47,6.47,0,0,1-1.2-.56,7.46,7.46,0,0,1-2.48-2.07,3.83,3.83,0,0,1-.69-3.13,2.77,2.77,0,0,1,.42-.91c.14-.18.24-.27.25-.26a4.36,4.36,0,0,0-.51,1.21,3.74,3.74,0,0,0,.71,3,8,8,0,0,0,2.38,2.06A10.08,10.08,0,0,1,173,445.44Z" style="fill:#fff"/>
    <path d="M147.75,442.53l.17.08a5.1,5.1,0,0,1,.49.26,2.39,2.39,0,0,1,.67.57,2.57,2.57,0,0,1,.46,1.09c.2.85.24,1.89.38,3a21.75,21.75,0,0,0,.78,3.59,43.36,43.36,0,0,0,2.53,6.19c.33.67.63,1.27.9,1.83a3.47,3.47,0,0,1,.3.68,4.66,4.66,0,0,1-.38-.64c-.23-.42-.56-1-1-1.8a38.78,38.78,0,0,1-2.61-6.19,20.24,20.24,0,0,1-.76-3.64c-.13-1.14-.15-2.16-.34-3a2.14,2.14,0,0,0-1-1.62C148,442.68,147.74,442.54,147.75,442.53Z" style="fill:#fff"/>
    <path d="M392.21,441.56h32.51a0,0,0,0,1,0,0v3.49a16.13,16.13,0,0,1-16.13,16.13h-.25a16.13,16.13,0,0,1-16.13-16.13v-3.49A0,0,0,0,1,392.21,441.56Z" transform="translate(-42.91 859.83) rotate(-90)" style="fill:#f5f5f5"/>
    <rect x="46.3" y="44.46" width="90.36" height="130.97" style="fill:#e0e0e0"/>
    <rect x="41.78" y="44.46" width="90.36" height="130.97" style="fill:#f5f5f5"/>
    <rect x="53" y="58.65" width="67.91" height="102.6" style="fill:#fff"/>
    <path d="M120.91,161.25s0-.17,0-.5,0-.82,0-1.46c0-1.29,0-3.17,0-5.62,0-4.92,0-12.09-.06-21.14,0-18.09-.07-43.71-.11-73.88l.22.22-67.9,0h0l.25-.24c0,38.7,0,74.39,0,102.6l-.2-.2,49.43.11,13.66.05,3.58,0,1.24,0-1.2,0-3.55,0-13.61.05L53,161.45h-.19v-.2c0-28.21,0-63.9-.05-102.6V58.4H53l67.9,0h.23v.23c0,30.23-.09,55.9-.11,74,0,9,0,16.18-.07,21.08,0,2.43,0,4.31,0,5.59,0,.62,0,1.09,0,1.43S120.91,161.25,120.91,161.25Z" style="fill:#e0e0e0"/>
    <path d="M132.39,44.46a15.7,15.7,0,0,1-1.61,2.34c-1.05,1.41-2.54,3.32-4.24,5.38s-3.29,3.89-4.47,5.19a15,15,0,0,1-2,2,15.71,15.71,0,0,1,1.72-2.25l4.35-5.28,4.35-5.28A18,18,0,0,1,132.39,44.46Z" style="fill:#e0e0e0"/>
    <path d="M121.26,160.92a84,84,0,0,0,11.84,14.81" style="fill:#fff"/>
    <path d="M133.1,175.73a13,13,0,0,1-2.06-1.88,61.63,61.63,0,0,1-4.47-5,64.3,64.3,0,0,1-3.94-5.46,13.48,13.48,0,0,1-1.37-2.43,17.84,17.84,0,0,1,1.66,2.23c1,1.4,2.4,3.31,4,5.36s3.19,3.83,4.34,5.11A19.85,19.85,0,0,1,133.1,175.73Z" style="fill:#e0e0e0"/>
    <path d="M41.76,175.33q5.93-7.31,11.84-14.6" style="fill:#fff"/>
    <path d="M53.6,160.73a90.06,90.06,0,0,1-5.73,7.45,87.09,87.09,0,0,1-6.11,7.15,92.81,92.81,0,0,1,5.73-7.45A87.09,87.09,0,0,1,53.6,160.73Z" style="fill:#e0e0e0"/>
    <path d="M41.78,44.46a82.84,82.84,0,0,1,5.74,6.87,81.49,81.49,0,0,1,5.36,7.17,81.59,81.59,0,0,1-5.74-6.86A79,79,0,0,1,41.78,44.46Z" style="fill:#e0e0e0"/>
    <rect x="77.02" y="79.48" width="22.74" height="64.56" style="fill:#e0e0e0"/>
    <rect x="385.94" y="39.09" width="83.5" height="87.04" style="fill:#e0e0e0"/>
    <rect x="380.29" y="39.09" width="83.5" height="87.04" style="fill:#fafafa"/>
    <path d="M463.81,126.15H380.26V39.06h83.55Zm-83.5-.05h83.45v-87H380.31Z" style="fill:#e0e0e0"/>
    <rect x="391.51" y="50.79" width="61.05" height="63.64" style="fill:#fff"/>
    <path d="M391.51,114.85a9.84,9.84,0,0,1-1.5,1.75c-1,1-2.35,2.42-3.88,3.94s-2.95,2.86-4,3.81a9.18,9.18,0,0,1-1.77,1.47,10.49,10.49,0,0,1,1.5-1.74c1-1,2.35-2.43,3.89-3.94s2.95-2.87,4-3.83A9.66,9.66,0,0,1,391.51,114.85Z" style="fill:#e0e0e0"/>
    <path d="M452.56,114.69a10.37,10.37,0,0,1,1.75,1.51c1,1,2.43,2.35,3.94,3.88s2.86,3,3.82,4a10.46,10.46,0,0,1,1.47,1.76,9,9,0,0,1-1.75-1.49c-1-1-2.42-2.35-3.94-3.89s-2.87-3-3.83-4A10,10,0,0,1,452.56,114.69Z" style="fill:#e0e0e0"/>
    <path d="M452.4,51a9.44,9.44,0,0,1,1.5-1.75c1-1,2.35-2.43,3.88-3.94s3-2.86,4-3.82A9.83,9.83,0,0,1,463.54,40a9.84,9.84,0,0,1-1.5,1.75c-1,1-2.35,2.42-3.89,3.94s-3,2.87-4,3.82A10.53,10.53,0,0,1,452.4,51Z" style="fill:#e0e0e0"/>
    <path d="M391.35,51.11a9.66,9.66,0,0,1-1.76-1.5c-1-1-2.42-2.35-3.93-3.88s-2.86-2.95-3.82-4A9.31,9.31,0,0,1,380.37,40a9.84,9.84,0,0,1,1.75,1.5c1,1,2.42,2.35,3.94,3.89s2.87,3,3.82,4A10.07,10.07,0,0,1,391.35,51.11Z" style="fill:#e0e0e0"/>
    <path d="M452.4,114.43a2.08,2.08,0,0,1,0-.31c0-.22,0-.51,0-.89,0-.8,0-2,0-3.44,0-3,0-7.4-.06-13,0-11.14-.07-27-.12-46l.24.23-60.88,0h0l.27-.27c0,23.36,0,45.21,0,63.64l-.23-.24,44.09.12,12.38.06,3.27,0h.85l.3,0h-1.09l-3.24,0-12.33.06-44.23.12h-.23v-.23c0-18.43,0-40.28,0-63.64v-.27h.28l60.88,0h.23v.24c-.05,19.07-.09,35-.12,46.18,0,5.55-.05,9.92-.06,12.92q0,2.2,0,3.39c0,.37,0,.65,0,.86S452.4,114.43,452.4,114.43Z" style="fill:#e0e0e0"/>
    <rect x="411.85" y="72.42" width="20.37" height="20.37" style="fill:#ebebeb"/>
  </g>
  <g id="freepik--Floor--inject-82">
    <path d="M42.88,467.27c0-.15,92.87-.26,207.41-.26s207.42.11,207.42.26-92.85.26-207.42.26S42.88,467.41,42.88,467.27Z" style="fill:#263238"/>
  </g>
  <g id="freepik--Plant--inject-82">
    <path d="M84.08,429.83s-5.44-37.39-5-59.14,0-46.22,0-46.22h2.5s-1.69,43.17.15,69.21,6.71,36.15,6.71,36.15H84.08" style="fill:#263238"/>
    <path d="M100.28,282.41A6.68,6.68,0,0,0,98,279.06c-1.59-1-3.67-.58-5.44,0C85,281.78,78.26,295.9,75.2,303.32l10,33.87C103.4,320.36,106.54,298.28,100.28,282.41Z" style="fill:#455a64"/>
    <path d="M97.41,280.43a2.29,2.29,0,0,1-.15.45l-.49,1.23c-.44,1.07-1.06,2.62-1.8,4.54-1.48,3.85-3.37,9.22-5,15.28s-2.84,11.64-3.55,15.7c-.36,2-.63,3.68-.8,4.82-.09.53-.16,1-.21,1.31a1.69,1.69,0,0,1-.11.45,3.17,3.17,0,0,1,0-.46l.14-1.33c.12-1.14.35-2.8.67-4.84a145.73,145.73,0,0,1,3.44-15.76,143.43,143.43,0,0,1,5.18-15.28c.77-1.91,1.43-3.45,1.92-4.49.23-.49.42-.89.56-1.21A2.1,2.1,0,0,1,97.41,280.43Z" style="fill:#263238"/>
    <path d="M80.79,345.31c-9.42-5.21-15-15-15.5-25.75-.36-7.52,1.95-14.89,4.57-21.95A2.83,2.83,0,0,1,70.92,296a2.7,2.7,0,0,1,2.57.4c6.85,3.9,11,11.33,13.2,18.89a38.12,38.12,0,0,1,1.55,15.54,25.84,25.84,0,0,1-7.45,14.46" style="fill:#455a64"/>
    <path d="M80.79,345.31a1.48,1.48,0,0,1,0-.45c0-.35,0-.78,0-1.3,0-1.13,0-2.77-.14-4.78a131.84,131.84,0,0,0-1.74-15.64c-1-6.07-2.32-11.5-3.25-15.43-.46-1.92-.84-3.49-1.12-4.65-.12-.51-.21-.93-.29-1.27a1.5,1.5,0,0,1-.07-.45,3.2,3.2,0,0,1,.15.43l.37,1.25c.31,1.09.74,2.66,1.24,4.62,1,3.91,2.32,9.34,3.37,15.43a113.85,113.85,0,0,1,1.64,15.7c.05,2,.05,3.66,0,4.79,0,.52,0,.95-.06,1.3A2,2,0,0,1,80.79,345.31Z" style="fill:#263238"/>
    <g style="opacity:0.30000000000000004">
      <path d="M80.79,345.31c-9.42-5.21-15-15-15.5-25.75-.36-7.52,1.95-14.89,4.57-21.95A2.83,2.83,0,0,1,70.92,296a2.7,2.7,0,0,1,2.57.4c6.85,3.9,11,11.33,13.2,18.89a38.12,38.12,0,0,1,1.55,15.54,25.84,25.84,0,0,1-7.45,14.46"/>
    </g>
    <path d="M91.42,402.51c9.27,2,16.9,8.58,25.85,11.76,5.92,2.1,12.61,2.85,17.34,7-1.14-2.86-3.83-4.76-6.44-6.4a115.31,115.31,0,0,0-23.43-11.18c-4.21-1.46-8.77-2.67-13.06-1.47" style="fill:#455a64"/>
    <path d="M78,410.77c-11.61-.19-23.84-10.07-35.4-10.66,12.1-3.91,29.42-.72,35.4,10.66" style="fill:#455a64"/>
    <path d="M82.55,382.91c5.89-2.12,12.37-2.22,18.56-1.26s12.18,3,18.13,4.93c-.6-4-3.86-7.06-6.93-9.74a48.1,48.1,0,0,0-7.28-5.6,16.22,16.22,0,0,0-8.72-2.46,13.81,13.81,0,0,0-9.64,4.86,16,16,0,0,0-4.12,9.27" style="fill:#455a64"/>
    <path d="M58.71,370.09c-7.31-6.24-18.38-5.63-28-5.41a227.67,227.67,0,0,1,43.41,27.05C74.52,384.94,68,378,58.71,370.09Z" style="fill:#455a64"/>
    <g style="opacity:0.30000000000000004">
      <path d="M58.71,370.09c-7.31-6.24-18.38-5.63-28-5.41a227.67,227.67,0,0,1,43.41,27.05C74.52,384.94,68,378,58.71,370.09Z"/>
    </g>
    <path d="M85.83,361.48a81.85,81.85,0,0,1,11.25-6.54c3.84-1.74,7.43-4.53,11.15-6.54,4.82-2.61,9-6.24,13.42-9.47s9.28-6.16,14.69-7a28.85,28.85,0,0,0-13.37.77,86.78,86.78,0,0,0-12.59,4.9c-5.7,2.57-11.5,5.2-16.16,9.37s-8.88,8.28-8.39,14.52" style="fill:#455a64"/>
    <path d="M117.06,410.77a1.33,1.33,0,0,1-.37-.16l-1-.52c-.88-.47-2.13-1.16-3.71-1.95-.79-.42-1.65-.85-2.6-1.29s-1.94-.92-3-1.38A44,44,0,0,0,99.21,403a15.38,15.38,0,0,0-7.45-.19,21.42,21.42,0,0,0-3.16.94A16.27,16.27,0,0,0,86.06,405a16.44,16.44,0,0,0-3.21,2.65c-.67.72-1,1.16-1,1.13a1.93,1.93,0,0,1,.21-.34c.15-.21.38-.52.7-.9a15.06,15.06,0,0,1,3.17-2.79,15.83,15.83,0,0,1,2.57-1.38,20.35,20.35,0,0,1,3.2-1,15.47,15.47,0,0,1,7.63.15,42.2,42.2,0,0,1,7.21,2.55c1.08.48,2.09.95,3,1.42s1.81.91,2.58,1.34c1.57.83,2.8,1.56,3.66,2.07l1,.59A2.19,2.19,0,0,1,117.06,410.77Z" style="fill:#263238"/>
    <path d="M69.35,405a2.56,2.56,0,0,1,.73.21,16.6,16.6,0,0,1,1.89.82,23,23,0,0,1,9.7,9.32,18.2,18.2,0,0,1,.9,1.86,2.48,2.48,0,0,1,.24.72c-.07,0-.5-.95-1.39-2.43a25.84,25.84,0,0,0-9.59-9.21C70.32,405.48,69.32,405.08,69.35,405Z" style="fill:#263238"/>
    <path d="M43.66,369.51a3.12,3.12,0,0,1,.49.15l1.39.49,2.2.81c.86.32,1.79.79,2.84,1.25a67.4,67.4,0,0,1,15.12,9.64,73.82,73.82,0,0,1,7,6.94,77.76,77.76,0,0,1,5,6.34c1.33,1.88,2.33,3.44,3,4.52l.8,1.25c.18.28.27.44.25.45a2.5,2.5,0,0,1-.32-.4c-.21-.27-.5-.68-.86-1.21-.73-1.05-1.77-2.59-3.13-4.44s-3.05-4-5.05-6.26a78.22,78.22,0,0,0-7-6.88,70.93,70.93,0,0,0-15-9.68c-1-.48-2-1-2.81-1.3l-2.16-.88-1.37-.56A2.47,2.47,0,0,1,43.66,369.51Z" style="fill:#263238"/>
    <path d="M100,376.39a5,5,0,0,1-.92-.12l-1.07-.2c-.42-.08-.9-.08-1.43-.14a14.45,14.45,0,0,0-11.61,4.27,16.48,16.48,0,0,0-2.33,2.89,22.69,22.69,0,0,0-1.6,3.05,3.45,3.45,0,0,1,.23-.91,13.26,13.26,0,0,1,1.12-2.29,15.13,15.13,0,0,1,2.31-3,14,14,0,0,1,3.71-2.8,14.19,14.19,0,0,1,8.2-1.5c.53.08,1,.1,1.44.2l1.06.27A3.58,3.58,0,0,1,100,376.39Z" style="fill:#263238"/>
    <path d="M111.64,340.18a2,2,0,0,1-.44.27l-1.29.71c-1.13.6-2.75,1.5-4.72,2.66s-4.27,2.62-6.73,4.38A55.92,55.92,0,0,0,91,354.49a19,19,0,0,0-3.07,4c-.76,1.46-1.49,2.87-2.16,4.22A77.71,77.71,0,0,0,82.5,370a44,44,0,0,0-1.57,5.17c-.3,1.24-.41,1.94-.45,1.94a2.5,2.5,0,0,1,0-.52c0-.33.11-.83.24-1.45a37.42,37.42,0,0,1,1.45-5.24,69.84,69.84,0,0,1,3.16-7.41c.66-1.37,1.38-2.79,2.14-4.25a19.28,19.28,0,0,1,3.13-4.08,55.11,55.11,0,0,1,7.59-6.32c2.48-1.74,4.82-3.17,6.8-4.31s3.64-2,4.79-2.56l1.34-.63A3.21,3.21,0,0,1,111.64,340.18Z" style="fill:#263238"/>
    <path d="M79.08,375.34a4.25,4.25,0,0,1-.23-1c-.14-.71-.31-1.61-.51-2.68A76.63,76.63,0,0,0,76.15,363a76.38,76.38,0,0,0-3.32-8.36l-1.13-2.48a3.93,3.93,0,0,1-.37-.94,6.23,6.23,0,0,1,.51.86c.31.57.74,1.4,1.25,2.44a61.15,61.15,0,0,1,3.45,8.35,59.85,59.85,0,0,1,2.09,8.79c.18,1.14.31,2.07.38,2.71A4.68,4.68,0,0,1,79.08,375.34Z" style="fill:#263238"/>
    <path d="M78.24,348.92a31.34,31.34,0,0,0-3.78-12.53,41.36,41.36,0,0,0-28-20.92l26,38.7,3.36,6.91C78,357.33,78.53,353.31,78.24,348.92Z" style="fill:#455a64"/>
    <rect x="55.1" y="425.2" width="60.39" height="10.7" style="fill:#88A1D7"/>
    <polygon points="59.62 433.78 64.76 466.99 104.85 466.99 110.98 433.78 59.62 433.78" style="fill:#88A1D7"/>
    <path d="M115.46,435.92c0,.12-13.62.21-30.42.21s-30.42-.09-30.42-.21,13.61-.21,30.42-.21S115.46,435.8,115.46,435.92Z" style="fill:#263238"/>
  </g>
  <g id="freepik--Notebook--inject-82">
    <path d="M377.05,386.43l-242.2,13a6.23,6.23,0,0,1-6.54-5.88L111.47,79.75a6.22,6.22,0,0,1,5.88-6.54l242.19-13a6.22,6.22,0,0,1,6.54,5.88l16.84,313.8A6.2,6.2,0,0,1,377.05,386.43Z" style="fill:#88A1D7"/>
    <path d="M372.53,386.67,145.47,398.86a5.48,5.48,0,0,1-5.77-5.18L122.94,81.4a5.48,5.48,0,0,1,5.18-5.77L355.19,63.44A5.49,5.49,0,0,1,361,68.62l16.75,312.29A5.47,5.47,0,0,1,372.53,386.67Z" style="fill:#e0e0e0"/>
    <path d="M365,387.08,137.92,399.26a5.47,5.47,0,0,1-5.77-5.18L115.39,81.8A5.49,5.49,0,0,1,120.57,76L347.64,63.85A5.49,5.49,0,0,1,353.41,69l16.76,312.28A5.48,5.48,0,0,1,365,387.08Z" style="fill:#fff"/>
    <path d="M365,387.08l.18,0c.12,0,.3,0,.53-.07a5.22,5.22,0,0,0,2-.81,5.56,5.56,0,0,0,2.14-2.72c.54-1.33.21-3,.16-4.85-.41-7.41-1-18.35-1.79-32.42-1.53-28.17-3.75-68.92-6.48-119.27-1.37-25.18-2.86-52.76-4.46-82.37q-1.19-22.2-2.47-45.88-.64-11.84-1.29-24c-.12-2-.2-4.08-.36-6.08a5.25,5.25,0,0,0-3.6-4.25,7.6,7.6,0,0,0-3-.18l-3.1.16-6.22.34L120.61,76.29a5.26,5.26,0,0,0-4.85,4.14,5.85,5.85,0,0,0-.09,1.73l.1,1.79.19,3.58q.39,7.17.77,14.28.76,14.23,1.51,28.27,1.52,28.06,3,55.27c1.94,36.23,3.81,71.18,5.6,104.48s3.46,64.93,5,94.54c.09,1.85.19,3.69.29,5.53l.15,2.74a11.56,11.56,0,0,0,.29,2.67,5.27,5.27,0,0,0,3.56,3.53,6.66,6.66,0,0,0,2.6.17l2.69-.14,21-1.12L202,395.64l119.27-6.31,32.43-1.7,8.43-.42c1.9-.1,2.88-.13,2.88-.13l-2.88.18-8.43.48-32.42,1.79L202,396l-39.52,2.14-21,1.13-2.68.15a7.33,7.33,0,0,1-2.75-.18,5.68,5.68,0,0,1-3.84-3.82,11.42,11.42,0,0,1-.32-2.76l-.15-2.75c-.1-1.83-.2-3.68-.3-5.53-1.59-29.61-3.3-61.24-5.09-94.54s-3.67-68.24-5.62-104.48q-1.47-27.17-3-55.26-.77-14-1.52-28.27-.39-7.12-.77-14.28L115.25,84l-.1-1.8a6.42,6.42,0,0,1,.1-1.85,5.77,5.77,0,0,1,5.34-4.56l216.6-11.6,6.23-.33,3.09-.17a7.85,7.85,0,0,1,3.15.21,5.73,5.73,0,0,1,3.93,4.64c.16,2.08.23,4.08.35,6.12q.66,12.17,1.29,24,1.26,23.67,2.45,45.89c1.57,29.61,3,57.19,4.38,82.37,2.67,50.35,4.83,91.11,6.32,119.27.74,14.08,1.31,25,1.69,32.44.05,1.83.37,3.52-.18,4.88a5.51,5.51,0,0,1-2.19,2.73,5.07,5.07,0,0,1-2,.79A4.94,4.94,0,0,1,365,387.08Z" style="fill:#263238"/>
    <circle cx="128.94" cy="100.67" r="4.96" style="fill:#263238"/>
    <rect x="102.24" y="97.85" width="28.47" height="2.6" rx="0.76" transform="translate(-5.15 6.38) rotate(-3.07)" style="fill:#e0e0e0"/>
    <path d="M130,99.73a1,1,0,0,0,.49-.3.79.79,0,0,0,.13-.67c0-.29,0-.65-.08-1a.7.7,0,0,0-.88-.49l-1.52.1-3.71.24L103,98.84a.5.5,0,0,0-.41.26.57.57,0,0,0-.06.25l0,.39,0,.75a.49.49,0,0,0,.29.39.66.66,0,0,0,.25,0l.38,0,.76,0,1.5-.08,5.7-.29,9.66-.46,6.51-.27,1.78-.05a3.08,3.08,0,0,1,.62,0,2.69,2.69,0,0,1-.62.09l-1.77.14-6.5.43-9.65.58-5.71.32-1.49.08-.76,0-.38,0a.94.94,0,0,1-.49-.08,1,1,0,0,1-.6-.79l-.05-.8,0-.39a1.16,1.16,0,0,1,.12-.51,1,1,0,0,1,.85-.54l21.48-1.08,3.71-.16,1.52-.06a1.08,1.08,0,0,1,.72.13.88.88,0,0,1,.38.57c0,.41,0,.73,0,1a1,1,0,0,1-.21.75C130.26,99.81,130,99.73,130,99.73Z" style="fill:#263238"/>
    <rect x="102.34" y="102.6" width="28.47" height="2.6" rx="0.76" transform="translate(-5.4 6.4) rotate(-3.07)" style="fill:#e0e0e0"/>
    <path d="M130.11,104.48a1.08,1.08,0,0,0,.49-.3.79.79,0,0,0,.13-.67c0-.29,0-.66-.08-1a.7.7,0,0,0-.88-.49l-1.52.11-3.71.24-21.47,1.22a.52.52,0,0,0-.42.27.43.43,0,0,0-.05.25l0,.38,0,.75a.49.49,0,0,0,.29.39.42.42,0,0,0,.25,0l.38,0,.76,0,1.5-.08,5.7-.29,9.66-.46,6.51-.27,1.78,0a2.31,2.31,0,0,1,.62,0,3,3,0,0,1-.62.08l-1.77.15-6.5.43-9.65.57-5.71.32-1.49.09-.76,0-.38,0a1.07,1.07,0,0,1-.49-.09,1,1,0,0,1-.6-.79l0-.79,0-.39a1,1,0,0,1,.11-.51,1.05,1.05,0,0,1,.85-.55L124.52,102l3.71-.16,1.52-.06a1.08,1.08,0,0,1,.72.13.86.86,0,0,1,.38.56c0,.41,0,.74,0,1a.88.88,0,0,1-.21.74C130.37,104.56,130.09,104.48,130.11,104.48Z" style="fill:#263238"/>
    <path d="M134.92,119.47a5,5,0,1,1-5.22-4.69A5,5,0,0,1,134.92,119.47Z" style="fill:#263238"/>
    <rect x="102.93" y="116.84" width="28.47" height="2.6" rx="0.76" transform="translate(-6.16 6.45) rotate(-3.07)" style="fill:#e0e0e0"/>
    <path d="M130.7,118.72a1.05,1.05,0,0,0,.49-.31.77.77,0,0,0,.13-.66c0-.29,0-.66-.08-1a.7.7,0,0,0-.88-.49l-1.52.11-3.71.23-21.48,1.23a.49.49,0,0,0-.41.27.51.51,0,0,0-.06.25l0,.38,0,.75a.49.49,0,0,0,.29.39.51.51,0,0,0,.25,0l.38,0,.76,0,1.5-.08,5.7-.29,9.66-.46,6.51-.27,1.78,0a2.36,2.36,0,0,1,.62,0,4.68,4.68,0,0,1-.62.08l-1.77.15-6.5.43-9.65.57-5.71.32-1.49.09-.76,0-.38,0a1.07,1.07,0,0,1-.49-.09,1,1,0,0,1-.6-.79l0-.79,0-.4a1.08,1.08,0,0,1,.12-.5,1,1,0,0,1,.85-.55l21.48-1.07,3.71-.16,1.52-.06a1.08,1.08,0,0,1,.72.13.86.86,0,0,1,.38.56c0,.41,0,.73,0,1a.93.93,0,0,1-.21.74C131,118.8,130.68,118.72,130.7,118.72Z" style="fill:#263238"/>
    <rect x="103.03" y="121.58" width="28.47" height="2.6" rx="0.76" transform="translate(-6.42 6.46) rotate(-3.07)" style="fill:#e0e0e0"/>
    <path d="M130.8,123.46a1,1,0,0,0,.49-.3.78.78,0,0,0,.13-.67c0-.29,0-.65-.08-1a.7.7,0,0,0-.88-.49l-1.52.1-3.71.24-21.47,1.23a.49.49,0,0,0-.42.27.4.4,0,0,0,0,.24l0,.39,0,.75a.49.49,0,0,0,.29.39.66.66,0,0,0,.25,0l.38,0,.76,0,1.5-.08,5.7-.29,9.66-.46,6.51-.27,1.78,0a3,3,0,0,1,.62,0,2.56,2.56,0,0,1-.62.09l-1.76.14-6.51.43-9.65.58-5.7.32-1.5.08-.76,0-.38,0a.94.94,0,0,1-.49-.08,1,1,0,0,1-.6-.79l0-.8,0-.39a1,1,0,0,1,.11-.51,1,1,0,0,1,.85-.54L125.21,121l3.71-.16,1.52-.06a1.08,1.08,0,0,1,.72.13.88.88,0,0,1,.38.57c0,.41,0,.73,0,1a.92.92,0,0,1-.21.75A.62.62,0,0,1,130.8,123.46Z" style="fill:#263238"/>
    <circle cx="131.05" cy="139.89" r="4.96" style="fill:#263238"/>
    <rect x="104.01" y="137" width="28.47" height="2.6" rx="0.76" transform="translate(-7.24 6.53) rotate(-3.07)" style="fill:#e0e0e0"/>
    <path d="M131.78,138.88a1.05,1.05,0,0,0,.49-.31.82.82,0,0,0,.14-.67c0-.28,0-.65-.09-1a.7.7,0,0,0-.88-.49l-1.52.11-3.71.23L104.74,138a.49.49,0,0,0-.42.27.4.4,0,0,0,0,.24l0,.39,0,.75a.49.49,0,0,0,.29.39.51.51,0,0,0,.25,0l.38,0,.76,0,1.5-.08,5.7-.29,9.66-.46,6.51-.27,1.78,0a2.31,2.31,0,0,1,.62,0,4.35,4.35,0,0,1-.62.08l-1.76.14-6.51.44-9.65.57-5.7.32-1.5.08-.76.05-.38,0a1.07,1.07,0,0,1-.49-.09,1,1,0,0,1-.6-.79l0-.79,0-.4a1,1,0,0,1,.11-.5,1,1,0,0,1,.85-.55l21.48-1.07,3.71-.17,1.52-.06a1.14,1.14,0,0,1,.72.14.83.83,0,0,1,.38.56c0,.41,0,.73,0,1a.89.89,0,0,1-.21.74C132,139,131.76,138.88,131.78,138.88Z" style="fill:#263238"/>
    <rect x="104.12" y="141.74" width="28.47" height="2.6" rx="0.76" transform="translate(-7.49 6.55) rotate(-3.07)" style="fill:#e0e0e0"/>
    <path d="M131.88,143.62a1,1,0,0,0,.5-.3.87.87,0,0,0,.13-.67c0-.29,0-.65-.09-1a.7.7,0,0,0-.88-.49l-1.52.1-3.71.24-21.47,1.23a.51.51,0,0,0-.42.26.56.56,0,0,0,0,.25l0,.39,0,.75a.51.51,0,0,0,.29.39.68.68,0,0,0,.26,0l.38,0,.75,0,1.5-.08,5.7-.29,9.66-.46,6.52-.27,1.77-.05a3,3,0,0,1,.62,0,2.56,2.56,0,0,1-.62.09l-1.76.14-6.51.43-9.65.58-5.7.32-1.5.08-.76,0-.38,0a.94.94,0,0,1-.49-.08,1,1,0,0,1-.59-.79l0-.8,0-.39a1,1,0,0,1,1-1l21.48-1.08L130,141l1.53-.06a1.06,1.06,0,0,1,.71.13.88.88,0,0,1,.38.57c0,.41,0,.73,0,1a1,1,0,0,1-.2.75A.64.64,0,0,1,131.88,143.62Z" style="fill:#263238"/>
    <path d="M137.09,159.78a5,5,0,1,1-5.23-4.68A5,5,0,0,1,137.09,159.78Z" style="fill:#263238"/>
    <rect x="105.1" y="157.16" width="28.47" height="2.6" rx="0.76" transform="translate(-8.32 6.62) rotate(-3.07)" style="fill:#e0e0e0"/>
    <path d="M132.86,159a.94.94,0,0,0,.5-.3.82.82,0,0,0,.13-.67c0-.29-.05-.65-.09-1a.69.69,0,0,0-.88-.49l-1.52.1-3.71.24-21.47,1.23a.49.49,0,0,0-.47.51l0,.39,0,.75a.51.51,0,0,0,.29.39.53.53,0,0,0,.26,0l.38,0,.75,0,1.5-.08,5.7-.29,9.66-.46,6.52-.27,1.77,0a3.72,3.72,0,0,1,.62,0,2.56,2.56,0,0,1-.62.09l-1.76.14-6.51.44-9.65.57-5.7.32-1.5.08-.76,0-.38,0a1.07,1.07,0,0,1-.49-.09,1,1,0,0,1-.59-.79l-.05-.79,0-.4a1,1,0,0,1,.11-.5,1,1,0,0,1,.85-.55l21.48-1.08,3.71-.16,1.53-.06a1.07,1.07,0,0,1,.71.14.83.83,0,0,1,.38.56c0,.41,0,.73,0,1a.94.94,0,0,1-.2.75C133.12,159.12,132.84,159,132.86,159Z" style="fill:#263238"/>
    <rect x="105.2" y="161.9" width="28.47" height="2.6" rx="0.76" transform="translate(-8.57 6.63) rotate(-3.07)" style="fill:#e0e0e0"/>
    <path d="M133,163.78a.94.94,0,0,0,.5-.3.83.83,0,0,0,.13-.67c0-.29,0-.65-.09-1a.69.69,0,0,0-.88-.49l-1.52.1-3.71.24-21.47,1.23a.49.49,0,0,0-.41.26.44.44,0,0,0-.06.25l0,.38,0,.76a.48.48,0,0,0,.29.38.53.53,0,0,0,.26.05l.38,0,.76,0,1.49-.08,5.7-.29,9.66-.47,6.52-.26,1.77-.05a2.93,2.93,0,0,1,.62,0,2.52,2.52,0,0,1-.61.09l-1.77.14-6.51.43-9.65.58-5.7.32-1.5.08-.75,0-.39,0a1.08,1.08,0,0,1-.49-.08,1,1,0,0,1-.59-.79l0-.8,0-.39a1,1,0,0,1,1-1l21.48-1.08,3.72-.16,1.52-.06a1,1,0,0,1,.71.13.88.88,0,0,1,.38.56c0,.42,0,.74,0,1a.91.91,0,0,1-.2.75A.63.63,0,0,1,133,163.78Z" style="fill:#263238"/>
    <circle cx="133.21" cy="180.21" r="4.96" style="fill:#263238"/>
    <rect x="106.18" y="177.32" width="28.47" height="2.6" rx="0.76" transform="translate(-9.4 6.71) rotate(-3.07)" style="fill:#e0e0e0"/>
    <path d="M133.94,179.19a.94.94,0,0,0,.5-.3.82.82,0,0,0,.13-.67c0-.29,0-.65-.09-1a.69.69,0,0,0-.88-.49l-1.52.1-3.71.24L106.9,178.3a.48.48,0,0,0-.41.27.41.41,0,0,0-.06.24l0,.39,0,.75a.51.51,0,0,0,.29.39.53.53,0,0,0,.26,0l.38,0,.76,0,1.49-.08,5.71-.29,9.65-.46,6.52-.27,1.77-.05a4.18,4.18,0,0,1,.62,0,2.52,2.52,0,0,1-.61.09l-1.77.14-6.51.43-9.65.58-5.7.32-1.5.08-.75,0-.38,0a1,1,0,0,1-.5-.08A1,1,0,0,1,106,180l0-.79,0-.4a1,1,0,0,1,.11-.51,1,1,0,0,1,.85-.54l21.48-1.08,3.72-.16,1.52-.06a1.05,1.05,0,0,1,.71.14.83.83,0,0,1,.38.56c0,.41,0,.73,0,1a.91.91,0,0,1-.2.75C134.2,179.27,133.93,179.2,133.94,179.19Z" style="fill:#263238"/>
    <rect x="106.28" y="182.06" width="28.47" height="2.6" rx="0.76" transform="translate(-9.65 6.72) rotate(-3.07)" style="fill:#e0e0e0"/>
    <path d="M134,183.94a.94.94,0,0,0,.5-.3.83.83,0,0,0,.13-.67c0-.29,0-.65-.09-1a.69.69,0,0,0-.88-.48l-1.52.1-3.7.24L107,183.05a.48.48,0,0,0-.41.26.54.54,0,0,0-.06.25l0,.38,0,.76a.5.5,0,0,0,.29.38.45.45,0,0,0,.26,0l.38,0,.76,0,1.49-.07,5.71-.29,9.66-.47,6.51-.26,1.77-.05a2.93,2.93,0,0,1,.62,0,2.52,2.52,0,0,1-.61.09l-1.77.14-6.5.43-9.66.57-5.7.33-1.5.08-.75,0-.38,0a1.12,1.12,0,0,1-.5-.08,1,1,0,0,1-.59-.79l0-.8,0-.39a1,1,0,0,1,.12-.51,1,1,0,0,1,.84-.54l21.49-1.08,3.71-.16,1.52-.06a1.09,1.09,0,0,1,.72.13.9.9,0,0,1,.37.56c0,.42,0,.74,0,1a.88.88,0,0,1-.2.74C134.3,184,134,183.94,134,183.94Z" style="fill:#263238"/>
    <path d="M139.25,200.1a5,5,0,1,1-5.22-4.69A5,5,0,0,1,139.25,200.1Z" style="fill:#263238"/>
    <rect x="107.26" y="197.47" width="28.47" height="2.6" rx="0.76" transform="translate(-10.48 6.8) rotate(-3.07)" style="fill:#e0e0e0"/>
    <path d="M135,199.35a.94.94,0,0,0,.5-.3.82.82,0,0,0,.13-.67c0-.29,0-.65-.09-1a.69.69,0,0,0-.88-.49l-1.52.1-3.7.24L108,198.46a.49.49,0,0,0-.41.27.5.5,0,0,0-.06.24l0,.39,0,.75a.51.51,0,0,0,.29.39.75.75,0,0,0,.26,0l.38,0,.76,0,1.49-.08,5.71-.29,9.66-.46,6.51-.27,1.77,0a2.93,2.93,0,0,1,.62,0,2.52,2.52,0,0,1-.61.09l-1.77.14-6.5.43-9.66.58-5.7.32-1.5.08-.75,0-.38,0a1,1,0,0,1-.5-.08,1,1,0,0,1-.59-.79l0-.8,0-.39a1,1,0,0,1,.12-.51,1,1,0,0,1,.84-.54l21.49-1.08,3.71-.16,1.52-.06a1.09,1.09,0,0,1,.72.13.9.9,0,0,1,.37.57c0,.41,0,.73.05,1a1,1,0,0,1-.21.75A.63.63,0,0,1,135,199.35Z" style="fill:#263238"/>
    <rect x="107.36" y="202.22" width="28.47" height="2.6" rx="0.76" transform="translate(-10.73 6.81) rotate(-3.07)" style="fill:#e0e0e0"/>
    <path d="M135.12,204.1a.94.94,0,0,0,.5-.3.79.79,0,0,0,.13-.67c0-.29,0-.66-.08-1a.7.7,0,0,0-.89-.48l-1.52.1-3.7.24-21.48,1.22a.51.51,0,0,0-.41.27.54.54,0,0,0-.06.25l0,.38,0,.76a.52.52,0,0,0,.3.38.42.42,0,0,0,.25,0l.38,0,.76,0,1.5-.07,5.7-.3,9.66-.46,6.51-.26,1.77,0a2.26,2.26,0,0,1,.62,0,2.3,2.3,0,0,1-.61.08l-1.77.15-6.5.43-9.66.57-5.7.32-1.49.09-.76,0-.38,0a1.06,1.06,0,0,1-.49-.08,1,1,0,0,1-.6-.79l0-.8,0-.39a1,1,0,0,1,.12-.51,1,1,0,0,1,.85-.55l21.48-1.07,3.71-.16,1.52-.06a1.09,1.09,0,0,1,.72.13.84.84,0,0,1,.37.56c0,.41,0,.74,0,1a.92.92,0,0,1-.21.74C135.38,204.18,135.11,204.1,135.12,204.1Z" style="fill:#263238"/>
    <path d="M140.33,220.26a5,5,0,1,1-5.22-4.69A5,5,0,0,1,140.33,220.26Z" style="fill:#263238"/>
    <rect x="108.34" y="217.63" width="28.47" height="2.6" rx="0.76" transform="translate(-11.56 6.88) rotate(-3.07)" style="fill:#e0e0e0"/>
    <path d="M136.1,219.51a.94.94,0,0,0,.5-.3.79.79,0,0,0,.13-.67c0-.29,0-.65-.08-1a.71.71,0,0,0-.89-.49l-1.52.1-3.7.24-21.48,1.23a.5.5,0,0,0-.41.26.57.57,0,0,0-.06.25l0,.39,0,.75a.46.46,0,0,0,.29.38.51.51,0,0,0,.25,0l.38,0,.76,0,1.5-.08,5.7-.29,9.66-.47,6.51-.26,1.77,0a2.93,2.93,0,0,1,.62,0,2.39,2.39,0,0,1-.61.09l-1.77.14-6.5.43-9.66.58-5.7.32-1.49.08-.76,0-.38,0a.94.94,0,0,1-.49-.08,1,1,0,0,1-.6-.79l0-.8,0-.39a1,1,0,0,1,.12-.51,1,1,0,0,1,.85-.54L130.52,217l3.71-.16,1.52-.06a1.08,1.08,0,0,1,.72.13.86.86,0,0,1,.37.56c0,.42,0,.74,0,1a1,1,0,0,1-.21.75A.63.63,0,0,1,136.1,219.51Z" style="fill:#263238"/>
    <rect x="108.44" y="222.38" width="28.47" height="2.6" rx="0.76" transform="translate(-11.81 6.89) rotate(-3.07)" style="fill:#e0e0e0"/>
    <path d="M136.21,224.26a1.05,1.05,0,0,0,.49-.31.76.76,0,0,0,.13-.66c0-.29,0-.66-.08-1a.7.7,0,0,0-.88-.49l-1.52.11-3.71.23-21.48,1.23a.51.51,0,0,0-.41.27.54.54,0,0,0-.06.25l0,.38.05.75a.49.49,0,0,0,.29.39.51.51,0,0,0,.25,0l.38,0,.76,0,1.5-.08,5.7-.29,9.66-.46,6.51-.27,1.78,0a2.36,2.36,0,0,1,.62,0,3,3,0,0,1-.62.08l-1.77.15-6.5.43-9.65.57-5.71.32-1.49.09-.76,0-.38,0a1.07,1.07,0,0,1-.49-.09,1,1,0,0,1-.6-.79l0-.79,0-.39a1.1,1.1,0,0,1,.12-.51,1,1,0,0,1,.85-.55l21.48-1.07,3.71-.16,1.52-.06a1.08,1.08,0,0,1,.72.13.86.86,0,0,1,.38.56c0,.41,0,.74,0,1a.89.89,0,0,1-.21.74C136.47,224.34,136.19,224.26,136.21,224.26Z" style="fill:#263238"/>
    <path d="M141.41,240.42a5,5,0,1,1-5.22-4.69A5,5,0,0,1,141.41,240.42Z" style="fill:#263238"/>
    <rect x="109.42" y="237.79" width="28.47" height="2.6" rx="0.76" transform="translate(-12.63 6.97) rotate(-3.07)" style="fill:#e0e0e0"/>
    <path d="M137.19,239.67a1,1,0,0,0,.49-.3.79.79,0,0,0,.13-.67c0-.29,0-.65-.08-1a.7.7,0,0,0-.88-.48l-1.52.1-3.71.24-21.47,1.23a.51.51,0,0,0-.42.26.54.54,0,0,0-.06.25l0,.38,0,.76a.46.46,0,0,0,.29.38.42.42,0,0,0,.25,0l.38,0,.76,0,1.5-.08,5.7-.29,9.66-.47,6.51-.26,1.78,0a3,3,0,0,1,.62,0,2.56,2.56,0,0,1-.62.09l-1.77.14-6.5.43-9.65.58-5.71.32-1.49.08-.76,0-.38,0a1.06,1.06,0,0,1-.49-.08,1,1,0,0,1-.6-.79l0-.8,0-.39a1.13,1.13,0,0,1,.12-.51,1,1,0,0,1,.85-.54l21.48-1.08,3.71-.16,1.52-.06a1.08,1.08,0,0,1,.72.13.88.88,0,0,1,.38.56c0,.42,0,.74,0,1a.92.92,0,0,1-.21.75A.62.62,0,0,1,137.19,239.67Z" style="fill:#263238"/>
    <rect x="109.53" y="242.54" width="28.47" height="2.6" rx="0.76" transform="translate(-12.89 6.98) rotate(-3.07)" style="fill:#e0e0e0"/>
    <path d="M137.29,244.42a1.05,1.05,0,0,0,.49-.31.8.8,0,0,0,.14-.66c0-.29,0-.66-.09-1A.7.7,0,0,0,137,242l-1.52.11-3.71.23-21.47,1.23a.49.49,0,0,0-.42.27.42.42,0,0,0,0,.25l0,.38,0,.75a.49.49,0,0,0,.29.39.51.51,0,0,0,.25,0l.38,0,.76,0,1.5-.08,5.7-.29,9.66-.46,6.52-.27,1.77,0a2.31,2.31,0,0,1,.62,0,4.35,4.35,0,0,1-.62.08l-1.76.15-6.51.43-9.65.57-5.7.32-1.5.09-.76,0-.38,0a1.07,1.07,0,0,1-.49-.09,1,1,0,0,1-.6-.79l0-.79,0-.4a1,1,0,0,1,.11-.5,1,1,0,0,1,.85-.55l21.48-1.07,3.71-.16,1.52-.06a1.08,1.08,0,0,1,.72.13.86.86,0,0,1,.38.56c0,.41,0,.73,0,1a.93.93,0,0,1-.2.74C137.55,244.5,137.27,244.42,137.29,244.42Z" style="fill:#263238"/>
    <path d="M142.49,260.58a5,5,0,1,1-5.22-4.69A5,5,0,0,1,142.49,260.58Z" style="fill:#263238"/>
    <rect x="110.51" y="257.95" width="28.47" height="2.6" rx="0.76" transform="translate(-13.71 7.06) rotate(-3.07)" style="fill:#e0e0e0"/>
    <path d="M138.27,259.83a1,1,0,0,0,.5-.3.87.87,0,0,0,.13-.67c0-.29-.05-.65-.09-1a.69.69,0,0,0-.88-.48l-1.52.1-3.71.24-21.47,1.23a.49.49,0,0,0-.42.26.53.53,0,0,0,0,.25l0,.38,0,.76a.48.48,0,0,0,.29.38.42.42,0,0,0,.25,0l.39,0,.75,0,1.5-.07,5.7-.29,9.66-.47,6.52-.26,1.77-.05a3,3,0,0,1,.62,0,2.34,2.34,0,0,1-.62.08l-1.76.15-6.51.43-9.65.57-5.7.33-1.5.08-.76,0-.38,0a1.06,1.06,0,0,1-.49-.08,1,1,0,0,1-.6-.79l0-.8,0-.39a1,1,0,0,1,.11-.51,1,1,0,0,1,.85-.54l21.48-1.08,3.71-.16,1.53-.06a1.06,1.06,0,0,1,.71.13.88.88,0,0,1,.38.56c0,.42,0,.74,0,1a.91.91,0,0,1-.2.74C138.53,259.91,138.25,259.83,138.27,259.83Z" style="fill:#263238"/>
    <rect x="110.61" y="262.7" width="28.47" height="2.6" rx="0.76" transform="translate(-13.97 7.07) rotate(-3.07)" style="fill:#e0e0e0"/>
    <path d="M138.37,264.58a1,1,0,0,0,.5-.31.82.82,0,0,0,.13-.67c0-.28-.05-.65-.09-1a.69.69,0,0,0-.88-.49l-1.52.11-3.71.23-21.47,1.23a.49.49,0,0,0-.47.51l0,.39,0,.75a.51.51,0,0,0,.29.39.53.53,0,0,0,.26,0l.38,0,.75,0,1.5-.08,5.7-.29,9.66-.46,6.52-.27,1.77,0a2.31,2.31,0,0,1,.62,0,4.35,4.35,0,0,1-.62.08l-1.76.14-6.51.44-9.65.57-5.7.32-1.5.08-.76.05-.38,0a1.07,1.07,0,0,1-.49-.09,1,1,0,0,1-.59-.79l0-.79,0-.4a1,1,0,0,1,.11-.5,1,1,0,0,1,.85-.55l21.48-1.07,3.71-.17,1.53-.06a1.13,1.13,0,0,1,.71.14.83.83,0,0,1,.38.56c0,.41,0,.73,0,1a.93.93,0,0,1-.2.74C138.63,264.66,138.35,264.58,138.37,264.58Z" style="fill:#263238"/>
    <path d="M143.58,280.74a5,5,0,1,1-5.22-4.69A5,5,0,0,1,143.58,280.74Z" style="fill:#263238"/>
    <rect x="111.59" y="278.11" width="28.47" height="2.6" rx="0.76" transform="translate(-14.79 7.14) rotate(-3.07)" style="fill:#e0e0e0"/>
    <path d="M139.35,280a.94.94,0,0,0,.5-.3A.83.83,0,0,0,140,279c0-.29,0-.66-.09-1a.69.69,0,0,0-.88-.49l-1.52.11-3.71.24-21.47,1.22a.49.49,0,0,0-.47.52l0,.38,0,.75a.51.51,0,0,0,.29.39.44.44,0,0,0,.26,0l.38,0,.75,0,1.5-.08,5.7-.29,9.66-.46L137,280l1.77,0a2.26,2.26,0,0,1,.62,0,3,3,0,0,1-.61.08l-1.77.15-6.51.43-9.65.57-5.7.32-1.5.09-.76,0-.38,0a1.06,1.06,0,0,1-.49-.08,1,1,0,0,1-.59-.8l0-.79,0-.39a1,1,0,0,1,.11-.51,1.05,1.05,0,0,1,.85-.55l21.48-1.07,3.71-.16,1.53-.06a1,1,0,0,1,.71.13.86.86,0,0,1,.38.56c0,.41,0,.74,0,1a.91.91,0,0,1-.2.74C139.61,280.07,139.33,280,139.35,280Z" style="fill:#263238"/>
    <rect x="111.69" y="282.86" width="28.47" height="2.6" rx="0.76" transform="translate(-15.04 7.16) rotate(-3.07)" style="fill:#e0e0e0"/>
    <path d="M139.45,284.73a.94.94,0,0,0,.5-.3.82.82,0,0,0,.13-.67c0-.29,0-.65-.09-1a.69.69,0,0,0-.88-.49l-1.52.1-3.71.24-21.47,1.23a.48.48,0,0,0-.41.27.41.41,0,0,0-.06.24l0,.39,0,.75a.51.51,0,0,0,.29.39.53.53,0,0,0,.26,0l.38,0,.76,0,1.49-.08,5.71-.29,9.65-.46,6.52-.27,1.77,0a3.64,3.64,0,0,1,.62,0,2.52,2.52,0,0,1-.61.09l-1.77.14-6.51.44-9.65.57-5.7.32-1.5.08-.75,0-.38,0a1.11,1.11,0,0,1-.5-.09,1,1,0,0,1-.59-.79l0-.79,0-.4a1,1,0,0,1,.11-.5,1,1,0,0,1,.85-.55l21.48-1.08,3.72-.16,1.52-.06a1.05,1.05,0,0,1,.71.14.83.83,0,0,1,.38.56c0,.41,0,.73,0,1a.9.9,0,0,1-.2.75C139.71,284.82,139.44,284.74,139.45,284.73Z" style="fill:#263238"/>
    <path d="M144.66,300.9a5,5,0,1,1-5.22-4.69A5,5,0,0,1,144.66,300.9Z" style="fill:#263238"/>
    <rect x="112.67" y="298.27" width="28.47" height="2.6" rx="0.76" transform="translate(-15.87 7.23) rotate(-3.07)" style="fill:#e0e0e0"/>
    <path d="M140.43,300.15a1,1,0,0,0,.5-.31.8.8,0,0,0,.13-.66c0-.29,0-.66-.09-1a.69.69,0,0,0-.88-.49l-1.52.11-3.71.23-21.47,1.23a.5.5,0,0,0-.41.27.44.44,0,0,0-.06.25l0,.38,0,.75a.51.51,0,0,0,.29.39.53.53,0,0,0,.26,0l.38,0,.76,0,1.49-.08,5.71-.29,9.65-.46,6.52-.27,1.77,0a2.26,2.26,0,0,1,.62,0,3,3,0,0,1-.61.08l-1.77.15-6.51.43-9.65.57-5.7.32-1.5.09-.75,0-.38,0a1.11,1.11,0,0,1-.5-.09,1,1,0,0,1-.59-.79l0-.79,0-.39a1,1,0,0,1,.11-.51,1,1,0,0,1,.85-.55l21.48-1.07,3.72-.16,1.52-.06a1,1,0,0,1,.71.13.86.86,0,0,1,.38.56c0,.41,0,.73,0,1a.89.89,0,0,1-.2.74C140.69,300.23,140.42,300.15,140.43,300.15Z" style="fill:#263238"/>
    <rect x="112.77" y="303.02" width="28.47" height="2.6" rx="0.76" transform="translate(-16.12 7.24) rotate(-3.07)" style="fill:#e0e0e0"/>
    <path d="M140.53,304.89a.94.94,0,0,0,.5-.3.82.82,0,0,0,.13-.67c0-.29,0-.65-.09-1a.69.69,0,0,0-.88-.49l-1.52.1-3.7.24L113.49,304a.49.49,0,0,0-.41.27.5.5,0,0,0-.06.24l0,.39,0,.75a.51.51,0,0,0,.29.39.57.57,0,0,0,.26,0l.38,0,.76,0,1.49-.08,5.71-.29,9.66-.46,6.51-.27,1.77-.05a4.18,4.18,0,0,1,.62,0,2.52,2.52,0,0,1-.61.09l-1.77.14-6.5.43-9.66.58-5.7.32-1.49.08-.76,0-.38,0a1,1,0,0,1-.5-.08,1,1,0,0,1-.59-.79l0-.79,0-.4a1,1,0,0,1,.12-.51,1,1,0,0,1,.84-.54L135,302.4l3.71-.16,1.52-.06a1.09,1.09,0,0,1,.72.13.9.9,0,0,1,.37.57c0,.41,0,.73,0,1a1,1,0,0,1-.21.75C140.79,305,140.52,304.9,140.53,304.89Z" style="fill:#263238"/>
    <path d="M145.74,321.06a5,5,0,1,1-5.22-4.69A5,5,0,0,1,145.74,321.06Z" style="fill:#263238"/>
    <rect x="113.75" y="318.43" width="28.47" height="2.6" rx="0.76" transform="translate(-16.95 7.32) rotate(-3.07)" style="fill:#e0e0e0"/>
    <path d="M141.51,320.31a1,1,0,0,0,.5-.31.82.82,0,0,0,.13-.67c0-.28,0-.65-.09-1a.69.69,0,0,0-.88-.49l-1.52.11-3.7.23-21.48,1.23a.49.49,0,0,0-.41.27.51.51,0,0,0-.06.25l0,.38,0,.75a.53.53,0,0,0,.29.39.57.57,0,0,0,.26,0l.38,0,.76,0,1.49-.08,5.71-.29,9.66-.46,6.51-.27,1.77,0a2.26,2.26,0,0,1,.62,0,4.32,4.32,0,0,1-.61.08l-1.77.15-6.5.43-9.66.57-5.7.32-1.49.08L115,322l-.38,0a1.13,1.13,0,0,1-.5-.09,1,1,0,0,1-.59-.79l0-.79,0-.4a1,1,0,0,1,.12-.5,1,1,0,0,1,.84-.55l21.49-1.07,3.71-.16,1.52-.06a1.09,1.09,0,0,1,.72.13.88.88,0,0,1,.37.56c0,.41,0,.73.05,1a.93.93,0,0,1-.21.74C141.77,320.39,141.5,320.31,141.51,320.31Z" style="fill:#263238"/>
    <rect x="113.85" y="323.17" width="28.47" height="2.6" rx="0.76" transform="translate(-17.2 7.33) rotate(-3.07)" style="fill:#e0e0e0"/>
    <path d="M141.61,325.05a.94.94,0,0,0,.5-.3.78.78,0,0,0,.13-.67c0-.29,0-.65-.08-1a.7.7,0,0,0-.88-.49l-1.53.1-3.7.24-21.48,1.23a.5.5,0,0,0-.41.26.57.57,0,0,0-.06.25l0,.39,0,.75a.49.49,0,0,0,.29.39.66.66,0,0,0,.25,0l.38,0,.76,0,1.5-.08,5.7-.29,9.66-.46,6.51-.27L141,325a2.93,2.93,0,0,1,.62,0,2.39,2.39,0,0,1-.61.09l-1.77.14-6.5.43-9.66.58-5.7.32-1.49.08-.76,0-.38,0a.94.94,0,0,1-.49-.08,1,1,0,0,1-.6-.79l-.05-.8,0-.39a1,1,0,0,1,.12-.51,1,1,0,0,1,.85-.54L136,322.56l3.71-.16,1.52-.06a1.08,1.08,0,0,1,.72.13.86.86,0,0,1,.37.57c0,.41,0,.73.05,1a1,1,0,0,1-.21.75A.63.63,0,0,1,141.61,325.05Z" style="fill:#263238"/>
    <path d="M146.82,341.22a5,5,0,1,1-5.22-4.69A5,5,0,0,1,146.82,341.22Z" style="fill:#263238"/>
    <rect x="114.83" y="338.59" width="28.47" height="2.6" rx="0.76" transform="translate(-18.03 7.4) rotate(-3.07)" style="fill:#e0e0e0"/>
    <path d="M142.59,340.47a1,1,0,0,0,.5-.31.78.78,0,0,0,.13-.67c0-.28,0-.65-.08-1a.7.7,0,0,0-.88-.49l-1.53.1-3.7.24-21.48,1.23a.49.49,0,0,0-.41.27.5.5,0,0,0-.06.24l0,.39.05.75a.49.49,0,0,0,.29.39.51.51,0,0,0,.25,0l.38,0,.76,0,1.5-.08,5.7-.29,9.66-.46,6.51-.27,1.77,0a2.26,2.26,0,0,1,.62,0,4,4,0,0,1-.61.08l-1.77.14-6.5.44-9.65.57-5.71.32-1.49.08-.76,0-.38,0a1.07,1.07,0,0,1-.49-.09,1,1,0,0,1-.6-.79l0-.79,0-.4a1.08,1.08,0,0,1,.12-.5,1,1,0,0,1,.85-.55L137,338l3.71-.16,1.52-.06a1.14,1.14,0,0,1,.72.14.87.87,0,0,1,.38.56c0,.41,0,.73,0,1a.93.93,0,0,1-.21.74C142.85,340.55,142.58,340.47,142.59,340.47Z" style="fill:#263238"/>
    <rect x="114.93" y="343.33" width="28.47" height="2.6" rx="0.76" transform="translate(-18.28 7.42) rotate(-3.07)" style="fill:#e0e0e0"/>
    <path d="M142.7,345.21a1,1,0,0,0,.49-.3.79.79,0,0,0,.13-.67c0-.29,0-.65-.08-1a.7.7,0,0,0-.88-.49l-1.52.1-3.71.24-21.47,1.23a.51.51,0,0,0-.42.26.43.43,0,0,0,0,.25v.39l0,.75a.46.46,0,0,0,.29.38.51.51,0,0,0,.25,0l.38,0,.76,0,1.5-.08,5.7-.29,9.66-.47,6.51-.26,1.78-.05a3,3,0,0,1,.62,0,2.56,2.56,0,0,1-.62.09l-1.77.14-6.5.43-9.65.58-5.71.32-1.49.08-.76,0-.38,0a.94.94,0,0,1-.49-.08,1,1,0,0,1-.6-.79l0-.8,0-.39a1,1,0,0,1,1-1.05l21.48-1.08,3.71-.16,1.52-.06a1.08,1.08,0,0,1,.72.13.88.88,0,0,1,.38.56c0,.42,0,.74,0,1a.92.92,0,0,1-.21.75A.62.62,0,0,1,142.7,345.21Z" style="fill:#263238"/>
    <path d="M147.9,361.37a5,5,0,1,1-5.22-4.68A5,5,0,0,1,147.9,361.37Z" style="fill:#263238"/>
    <rect x="115.91" y="358.75" width="28.47" height="2.6" rx="0.76" transform="translate(-19.11 7.49) rotate(-3.07)" style="fill:#e0e0e0"/>
    <path d="M143.68,360.62a1,1,0,0,0,.49-.3.78.78,0,0,0,.13-.67c0-.29,0-.65-.08-1a.7.7,0,0,0-.88-.49l-1.52.1-3.71.24-21.47,1.23a.49.49,0,0,0-.42.27.4.4,0,0,0,0,.24l0,.39,0,.75a.49.49,0,0,0,.29.39.51.51,0,0,0,.25,0l.38,0,.76,0,1.5-.08,5.7-.29,9.66-.46,6.51-.27,1.78,0a4.3,4.3,0,0,1,.62,0,2.56,2.56,0,0,1-.62.09l-1.76.14-6.51.44-9.65.57-5.71.32-1.49.08-.76,0-.38,0a1.07,1.07,0,0,1-.49-.09,1,1,0,0,1-.6-.79l0-.79,0-.4a1,1,0,0,1,.11-.5,1,1,0,0,1,.85-.55l21.48-1.08,3.71-.16,1.52-.06a1.08,1.08,0,0,1,.72.14.83.83,0,0,1,.38.56c0,.41,0,.73,0,1a.91.91,0,0,1-.21.75C143.94,360.71,143.66,360.63,143.68,360.62Z" style="fill:#263238"/>
    <rect x="116.02" y="363.49" width="28.47" height="2.6" rx="0.76" transform="translate(-19.36 7.5) rotate(-3.07)" style="fill:#e0e0e0"/>
    <path d="M143.78,365.37a1,1,0,0,0,.5-.3.87.87,0,0,0,.13-.67c0-.29,0-.65-.09-1a.7.7,0,0,0-.88-.48l-1.52.1-3.71.24-21.47,1.23a.51.51,0,0,0-.42.26.53.53,0,0,0,0,.25l0,.38,0,.76a.48.48,0,0,0,.29.38.42.42,0,0,0,.25,0l.39,0,.75,0,1.5-.07,5.7-.29,9.66-.47,6.52-.26,1.77,0a3,3,0,0,1,.62,0,2.56,2.56,0,0,1-.62.09l-1.76.14-6.51.43-9.65.58-5.7.32L118,367l-.76,0-.38,0a1.06,1.06,0,0,1-.49-.08,1,1,0,0,1-.6-.79l0-.8,0-.39a1,1,0,0,1,.11-.51,1,1,0,0,1,.85-.54l21.48-1.08,3.71-.16,1.53-.06a1.06,1.06,0,0,1,.71.13.88.88,0,0,1,.38.56c0,.42,0,.74,0,1a1,1,0,0,1-.2.75A.64.64,0,0,1,143.78,365.37Z" style="fill:#263238"/>
    <path d="M148.85,379a5,5,0,1,1-5.22-4.69A5,5,0,0,1,148.85,379Z" style="fill:#263238"/>
    <rect x="116.86" y="376.37" width="28.47" height="2.6" rx="0.76" transform="translate(-20.05 7.57) rotate(-3.07)" style="fill:#e0e0e0"/>
    <path d="M144.62,378.25a1,1,0,0,0,.5-.31.82.82,0,0,0,.13-.67c0-.28,0-.65-.09-1a.69.69,0,0,0-.88-.49l-1.52.1-3.7.24-21.48,1.23a.48.48,0,0,0-.41.27.5.5,0,0,0-.06.24l0,.39,0,.75a.51.51,0,0,0,.29.39.55.55,0,0,0,.26,0l.38,0,.76,0,1.49-.08,5.71-.29,9.66-.46,6.51-.27,1.77,0a2.26,2.26,0,0,1,.62,0,4.32,4.32,0,0,1-.61.08l-1.77.14-6.5.44-9.66.57-5.7.32-1.5.08-.75.05-.38,0a1.13,1.13,0,0,1-.5-.09,1,1,0,0,1-.59-.79l0-.79,0-.4a1,1,0,0,1,.12-.5,1,1,0,0,1,.84-.55L139,375.75l3.71-.16,1.52-.06a1.16,1.16,0,0,1,.72.14.85.85,0,0,1,.37.56c0,.41,0,.73,0,1a.89.89,0,0,1-.2.74C144.88,378.33,144.61,378.25,144.62,378.25Z" style="fill:#263238"/>
    <rect x="116.96" y="381.11" width="28.47" height="2.6" rx="0.76" transform="translate(-20.3 7.58) rotate(-3.07)" style="fill:#e0e0e0"/>
    <path d="M144.72,383a.94.94,0,0,0,.5-.3.79.79,0,0,0,.13-.67c0-.29,0-.65-.08-1a.71.71,0,0,0-.89-.49l-1.52.1-3.7.24-21.48,1.23a.5.5,0,0,0-.41.26.54.54,0,0,0-.06.25l0,.39,0,.75a.49.49,0,0,0,.3.38.51.51,0,0,0,.25.05l.38,0,.76,0,1.49-.08,5.71-.29,9.66-.47,6.51-.26,1.77,0a2.93,2.93,0,0,1,.62,0,2.52,2.52,0,0,1-.61.09l-1.77.14-6.5.43-9.66.58-5.7.32-1.49.08-.76,0-.38,0a.94.94,0,0,1-.49-.08,1,1,0,0,1-.6-.79l-.05-.8,0-.39a1,1,0,0,1,.12-.51,1,1,0,0,1,.84-.54l21.49-1.08,3.71-.16,1.52-.06a1.09,1.09,0,0,1,.72.13.86.86,0,0,1,.37.56c0,.42,0,.74,0,1a1,1,0,0,1-.21.75A.63.63,0,0,1,144.72,383Z" style="fill:#263238"/>
    <path d="M354.86,96.1c0,.14-53.27,3.12-119,6.64s-119,6.27-119,6.13,53.27-3.12,119-6.65S354.85,96,354.86,96.1Z" style="fill:#e0e0e0"/>
    <path d="M355.87,114.9c0,.14-53.27,3.11-119,6.64s-119,6.27-119,6.13,53.26-3.12,119-6.65S355.86,114.75,355.87,114.9Z" style="fill:#e0e0e0"/>
    <path d="M356.88,133.69c0,.15-53.27,3.12-119,6.65s-119,6.27-119,6.13,53.26-3.12,119-6.65S356.87,133.55,356.88,133.69Z" style="fill:#e0e0e0"/>
    <path d="M357.89,152.49c0,.15-53.28,3.12-119,6.65s-119,6.27-119,6.13,53.26-3.12,119-6.65S357.88,152.35,357.89,152.49Z" style="fill:#e0e0e0"/>
    <path d="M358.9,171.29c0,.15-53.28,3.12-119,6.65s-119,6.27-119,6.12,53.26-3.11,119-6.64S358.89,171.15,358.9,171.29Z" style="fill:#e0e0e0"/>
    <path d="M359.9,190.09c0,.15-53.27,3.12-119,6.65s-119,6.27-119,6.12,53.26-3.11,119-6.64S359.9,190,359.9,190.09Z" style="fill:#e0e0e0"/>
    <path d="M360.91,208.89c0,.14-53.27,3.12-119,6.65s-119,6.27-119,6.12,53.26-3.12,119-6.64S360.91,208.75,360.91,208.89Z" style="fill:#e0e0e0"/>
    <path d="M361.92,227.69c0,.14-53.27,3.12-119,6.65s-119,6.27-119,6.12,53.26-3.12,119-6.64S361.91,227.55,361.92,227.69Z" style="fill:#e0e0e0"/>
    <path d="M362.93,246.49c0,.14-53.27,3.12-119,6.65s-119,6.27-119,6.12,53.26-3.12,119-6.64S362.92,246.35,362.93,246.49Z" style="fill:#e0e0e0"/>
    <path d="M363.94,265.29c0,.14-53.27,3.12-119,6.64s-119,6.27-119,6.13,53.26-3.12,119-6.65S363.93,265.14,363.94,265.29Z" style="fill:#e0e0e0"/>
    <path d="M365,284.09c0,.14-53.27,3.12-119,6.64s-119,6.27-119,6.13,53.26-3.12,119-6.65S364.94,283.94,365,284.09Z" style="fill:#e0e0e0"/>
    <path d="M366,302.89c0,.14-53.27,3.12-119,6.64s-119,6.27-119,6.13,53.26-3.12,119-6.65S366,302.74,366,302.89Z" style="fill:#e0e0e0"/>
    <path d="M367,321.69c0,.14-53.28,3.12-119,6.64s-119,6.27-119,6.13,53.26-3.12,119-6.65S367,321.54,367,321.69Z" style="fill:#e0e0e0"/>
    <path d="M368,340.49c0,.14-53.27,3.11-119,6.64s-119,6.27-119,6.13,53.26-3.12,119-6.65S368,340.34,368,340.49Z" style="fill:#e0e0e0"/>
    <path d="M369,359.28c0,.15-53.27,3.12-119,6.65s-119,6.27-119,6.13,53.26-3.12,119-6.65S369,359.14,369,359.28Z" style="fill:#e0e0e0"/>
    <path d="M166.81,395.91c-.15,0-4.1-71.57-8.84-159.86s-8.46-159.9-8.32-159.91,4.1,71.56,8.84,159.88S167,395.91,166.81,395.91Z" style="fill:#88A1D7"/>
    <text transform="matrix(1.186999, -0.063662, 0.065841, 1.227634, 193.241302, 123.503731)" style="font-size: 16.5846px; fill: rgb(38, 50, 56); font-family: Vibur; white-space: pre;">PreNotebook</text>
    <text transform="matrix(1.023599, -0.054899, 0.053317, 0.994103, 224.455902, 367.60141)" style="font-size: 16.5846px; fill: rgb(38, 50, 56); font-family: Vibur; white-space: pre;">-VedGupta</text>
    <text style="white-space: pre; fill: rgb(51, 51, 51); font-family: Arial, sans-serif; font-size: 21.2px;" x="250.454" y="415.506"> </text>
  </g>
  <g id="freepik--spreech-bubble--inject-82">
    <path d="M439.28,108.62a21.24,21.24,0,0,0-24.86,27.52l3.71,6.68h0a21.24,21.24,0,1,0,21.16-34.19Z" style="fill:#fff"/>
    <circle cx="426.87" cy="129.33" r="2.02" style="fill:#263238"/>
    <path d="M437,129.33a2,2,0,1,1-2-2A2,2,0,0,1,437,129.33Z" style="fill:#263238"/>
    <path d="M445,128.32a2,2,0,1,1-2.76-.74A2,2,0,0,1,445,128.32Z" style="fill:#263238"/>
    <path d="M455.76,129.33a1.91,1.91,0,0,1,0-.34c0-.25-.05-.58-.08-1a9.9,9.9,0,0,0-.19-1.6,15.24,15.24,0,0,0-.44-2.15,20.35,20.35,0,0,0-2.33-5.52,20.71,20.71,0,0,0-24.85-8.8,22,22,0,0,0-2.69,1.19,20.13,20.13,0,0,0-2.53,1.63,21.81,21.81,0,0,0-2.34,2,23.19,23.19,0,0,0-2,2.39,20,20,0,0,0-2.95,5.69,22.13,22.13,0,0,0-1.07,6.51,21.81,21.81,0,0,0,1.07,6.51,20.11,20.11,0,0,0,2.95,5.69,22,22,0,0,0,2,2.39,23,23,0,0,0,2.34,2,21.32,21.32,0,0,0,2.53,1.63,22,22,0,0,0,2.69,1.19,20.81,20.81,0,0,0,10.85.91,20.78,20.78,0,0,0,14-9.72A20.22,20.22,0,0,0,455,134.4a15.41,15.41,0,0,0,.44-2.14,10,10,0,0,0,.19-1.6c0-.42.06-.74.08-1a1.73,1.73,0,0,1,0-.34,1.73,1.73,0,0,1,0,.34l0,1a10.61,10.61,0,0,1-.14,1.62,15.14,15.14,0,0,1-.4,2.17,19.61,19.61,0,0,1-2.28,5.62,21,21,0,0,1-14.17,10,21.07,21.07,0,0,1-11.09-.88,21.61,21.61,0,0,1-2.76-1.21,21.13,21.13,0,0,1-2.6-1.66,24.1,24.1,0,0,1-2.4-2,25.85,25.85,0,0,1-2.08-2.45,20.31,20.31,0,0,1-3-5.83,22.25,22.25,0,0,1-1.1-6.67,22.63,22.63,0,0,1,1.1-6.68,20,20,0,0,1,3-5.82,24.36,24.36,0,0,1,2.07-2.45,22.83,22.83,0,0,1,2.4-2,21.13,21.13,0,0,1,2.6-1.66,21.61,21.61,0,0,1,2.76-1.21,21,21,0,0,1,19.95,3.09,20.92,20.92,0,0,1,5.31,6,19.49,19.49,0,0,1,2.27,5.62,14.1,14.1,0,0,1,.41,2.18,10.4,10.4,0,0,1,.14,1.61l0,1A1.8,1.8,0,0,1,455.76,129.33Z" style="fill:#263238"/>
    <path d="M414,147a4,4,0,1,1-4.5-3.5A4,4,0,0,1,414,147Z" style="fill:#fff"/>
    <path d="M414,147c-.05,0-.1-.35-.34-.92a4.06,4.06,0,0,0-1.73-1.9,3.81,3.81,0,1,0-2.78,7,3.88,3.88,0,0,0,3.53-.94A4.06,4.06,0,0,0,413.9,148c.1-.61.06-1,.11-1a2.26,2.26,0,0,1,.09,1,4,4,0,0,1-1.15,2.5,4.21,4.21,0,0,1-3.9,1.15,4.26,4.26,0,0,1-1-8,4.21,4.21,0,0,1,4.06.17,4,4,0,0,1,1.73,2.15A2.1,2.1,0,0,1,414,147Z" style="fill:#263238"/>
  </g>
  <g id="freepik--Character--inject-82">
    <path d="M359.52,126a4.31,4.31,0,0,1,.19-8.57,4.48,4.48,0,0,1,5.58-6.42,5.36,5.36,0,0,1,8.89-2.36,6,6,0,0,1,7.24,1.6,4.29,4.29,0,0,1,2,8" style="fill:#263238"/>
    <path d="M352,148.78c1.05-4.62,4-13.95,6.76-22.37a18.26,18.26,0,0,1,21.63-12.06l.92.23c9.78,3,12.72,12.93,9.48,22.62l-9.95,34.42L357.32,169l1.69-6.91S349.83,158.33,352,148.78Z" style="fill:#ffbf9d"/>
    <path d="M358.93,162.08a23.84,23.84,0,0,0,13.37-.64s-4.59,6.15-13.89,3Z" style="fill:#ff9a6c"/>
    <path d="M359.18,135.35a1.39,1.39,0,0,0,1,1.69,1.34,1.34,0,0,0,1.7-.88,1.39,1.39,0,0,0-1-1.69A1.33,1.33,0,0,0,359.18,135.35Z" style="fill:#263238"/>
    <path d="M359.69,131.57c.13.22,1.34-.29,2.8.06s2.37,1.35,2.57,1.21,0-.42-.39-.87a3.82,3.82,0,0,0-4.28-1C359.86,131.19,359.63,131.47,359.69,131.57Z" style="fill:#263238"/>
    <path d="M371.83,139a1.39,1.39,0,0,0,1,1.69,1.34,1.34,0,0,0,1.7-.89,1.39,1.39,0,0,0-1-1.68A1.33,1.33,0,0,0,371.83,139Z" style="fill:#263238"/>
    <path d="M373.85,135.34c.11.23,1.36-.19,2.79.28s2.25,1.53,2.46,1.4,0-.42-.31-.9a3.91,3.91,0,0,0-1.9-1.34,3.72,3.72,0,0,0-2.3,0C374,135,373.79,135.24,373.85,135.34Z" style="fill:#263238"/>
    <path d="M366.09,144.9a10.47,10.47,0,0,0-2.28-1c-.36-.12-.7-.28-.7-.55a1.93,1.93,0,0,1,.52-1.05l1.79-2.58c2.51-3.69,4.43-6.75,4.28-6.85s-2.31,2.8-4.82,6.49c-.61.91-1.2,1.77-1.75,2.61a2.16,2.16,0,0,0-.55,1.42,1,1,0,0,0,.48.69,2.45,2.45,0,0,0,.62.24A9.88,9.88,0,0,0,366.09,144.9Z" style="fill:#263238"/>
    <path d="M375.56,130.51c0,.43,1.32.73,2.73,1.49s2.44,1.66,2.77,1.39c.14-.13.07-.57-.27-1.13a4.79,4.79,0,0,0-1.83-1.63,4.5,4.5,0,0,0-2.36-.55C376,130.11,375.58,130.31,375.56,130.51Z" style="fill:#263238"/>
    <path d="M360.79,127.53c.22.39,1.4.24,2.75.46s2.45.66,2.77.35c.15-.15,0-.52-.42-.93a4.18,4.18,0,0,0-2.14-.94,4.09,4.09,0,0,0-2.31.29C360.91,127,360.69,127.35,360.79,127.53Z" style="fill:#263238"/>
    <path d="M360.74,122.27s3.95-5.36,7.16-6.06c3.89-.85,4.47,3.34,8,3.21s7.26-1,10,2.44c3,3.7.82,5.25,0,9.54-3.2,17.37-1.24,23,1.6,15.11.31-.86,2.93-1,4.2-4.62,1.64-4.74,3.24-10.58,3-14.28-.21-3.12-1.38-5.52-3.82-8.44-3.83-4.62-10.24-6.24-14.71-6.85S362.14,114.7,360.74,122.27Z" style="fill:#263238"/>
    <path d="M387,146.1a2.67,2.67,0,0,1,3.4-1.82c1.73.6,3.47,2.09,2.46,5.73-1.77,6.47-7.9,3.35-7.86,3.16S386.26,148.8,387,146.1Z" style="fill:#ffbf9d"/>
    <path d="M387.11,151.12s.09.11.26.25a1.15,1.15,0,0,0,.83.25c.75-.06,1.63-1,2-2.14a3.86,3.86,0,0,0,.13-1.7,1.34,1.34,0,0,0-.61-1.1.6.6,0,0,0-.75.12c-.14.16-.13.3-.17.3s-.11-.14,0-.4a.73.73,0,0,1,.36-.33.87.87,0,0,1,.67,0,1.63,1.63,0,0,1,.9,1.32,3.91,3.91,0,0,1-.1,1.91c-.4,1.29-1.41,2.33-2.41,2.34a1.27,1.27,0,0,1-1-.45C387.08,151.28,387.08,151.13,387.11,151.12Z" style="fill:#ff9a6c"/>
    <path d="M390,133.45a6.5,6.5,0,0,1-3.07.61,2.2,2.2,0,0,1-2-2.07c0-.47.27-1,.06-1.39s-.94-.53-1.5-.6a4.29,4.29,0,0,1-3.6-4,1.8,1.8,0,0,1-2.4-.34,9.66,9.66,0,0,1-1.31-2.33,2.76,2.76,0,0,0-2-1.65,6.71,6.71,0,0,1-1.49,0c-.84-.29-1-1.39-.94-2.27s.21-1.89-.4-2.53a3.54,3.54,0,0,0-2.31-.63c-.82-.07-1.79-.5-1.81-1.32a1.58,1.58,0,0,1,.58-1.11,4.34,4.34,0,0,1,5.36-.4,5.89,5.89,0,0,1,10.78,1.43,6,6,0,0,1,8.77,4.35A4.33,4.33,0,0,1,396,126.4a4.11,4.11,0,0,1,1.43,3.71c-.3,1.36-1.94,2.39-3.16,1.72a2.4,2.4,0,0,1-4.59,1.35" style="fill:#263238"/>
    <path d="M372.21,115.16s0,0,0,.12,0,.2,0,.36a4.26,4.26,0,0,0,.17,1.37,4.83,4.83,0,0,0,1.07,1.89,4.43,4.43,0,0,0,2.49,1.4l-.08-.17a2.45,2.45,0,0,0-.3,1.83,6.61,6.61,0,0,0,.73,1.87,4.53,4.53,0,0,0,.55.93,2.52,2.52,0,0,0,3.22.38l-.23-.13A5,5,0,0,0,381,128.9a3.68,3.68,0,0,0,2,1.21,6.65,6.65,0,0,0,2.22,0l-.16-.12a5.37,5.37,0,0,0,1.06,2.38,2.81,2.81,0,0,0,2.12,1.17,3.7,3.7,0,0,0,3.44-2.15l-.16,0a3.44,3.44,0,0,0,2.16.87,3.78,3.78,0,0,0,1.72-.32,3.19,3.19,0,0,0,.92-.62,1.55,1.55,0,0,0,.25-.3,4.15,4.15,0,0,1-1.21.81,3.52,3.52,0,0,1-1.67.26,3.26,3.26,0,0,1-2-.85l-.11-.1-.06.13a3.47,3.47,0,0,1-3.24,2,2.53,2.53,0,0,1-1.92-1.08,5.09,5.09,0,0,1-1-2.26l0-.13-.13,0a6.62,6.62,0,0,1-2.13,0,3.36,3.36,0,0,1-1.82-1.13A4.78,4.78,0,0,1,380,125l0-.31-.26.18a2.17,2.17,0,0,1-2,.22,2.05,2.05,0,0,1-.83-.55,4.66,4.66,0,0,1-.52-.87,6.72,6.72,0,0,1-.72-1.79,2.22,2.22,0,0,1,.25-1.67l.09-.14-.17,0a4.32,4.32,0,0,1-2.39-1.3,4.81,4.81,0,0,1-1.08-1.81A5,5,0,0,1,372.21,115.16Z" style="fill:#455a64"/>
    <path d="M369.91,147.89a23,23,0,0,0-5.56.37l0,0c-.09,1.27-.06,2.69.83,3.59a2.64,2.64,0,0,0,2.61.63,3,3,0,0,0,2-1.73A6.31,6.31,0,0,0,369.91,147.89Z" style="fill:#ff9a6c"/>
    <path d="M366.17,152.36a2.85,2.85,0,0,0,1.77-.06,2.64,2.64,0,0,0,1.38-1.24,4.38,4.38,0,0,0,.45-2.3,3.08,3.08,0,0,0-.07-.59s0,0,0,0l-.3,0-1.2.06-2.05.07a7.51,7.51,0,0,1-1.89-.06,7.73,7.73,0,0,1,1.87-.28l2-.17,1.21-.09.34,0a.49.49,0,0,1,.45.33,4.26,4.26,0,0,1,.1.72,4.56,4.56,0,0,1-.54,2.54,2.87,2.87,0,0,1-1.66,1.35,2.31,2.31,0,0,1-1.43,0C366.29,152.52,366.16,152.39,366.17,152.36Z" style="fill:#263238"/>
    <path d="M324.44,422.81l-14.78,22.86-6.47,21.46a2.8,2.8,0,0,1-3.66,1.8h0a2.66,2.66,0,0,1-1.71-1.9c-1.16-5.43-5.2-30.42-4.43-31.58,1.27-1.93,12.89-21.26,12.89-21.26Z" style="fill:#263238"/>
    <path d="M299.53,468.93l-5.18-35.05-.61,1a4.17,4.17,0,0,0-.57,2.84c.41,2.64,1.7,15.26,4.58,29.29a2.7,2.7,0,0,0,1.78,1.94Z" style="fill:#455a64"/>
    <g style="opacity:0.6000000000000001">
      <path d="M302.61,433.22a1.68,1.68,0,0,1-.76,2.12,1.64,1.64,0,0,1-2.11-.74,1.79,1.79,0,0,1,.82-2.24,1.68,1.68,0,0,1,2.11,1" style="fill:#fff"/>
    </g>
    <path d="M300.46,455.54a8.41,8.41,0,0,1,3.14-.56,8.64,8.64,0,0,1,3,1.13c.06,0-.13-.4-.62-.81a4.32,4.32,0,0,0-2.31-.91,4.37,4.37,0,0,0-2.43.46C300.66,455.16,300.41,455.48,300.46,455.54Z" style="fill:#fff"/>
    <path d="M300.2,459.66a23.48,23.48,0,0,1,2.67.26c1.42.37,2.31,1.23,2.44,1.1s-.67-1.25-2.29-1.67S300.12,459.52,300.2,459.66Z" style="fill:#fff"/>
    <path d="M299.83,449.67c0,.18,1.89-.29,4.14.13s3.83,1.46,3.93,1.31-1.41-1.48-3.83-1.9S299.75,449.53,299.83,449.67Z" style="fill:#fff"/>
    <path d="M303.74,442.34c0,.18,1.58.43,3.29,1.4s2.78,2.17,2.92,2.06a5.49,5.49,0,0,0-2.63-2.59A5.42,5.42,0,0,0,303.74,442.34Z" style="fill:#fff"/>
    <path d="M306.47,437.48c0,.18,1.75.19,3.46,1.36a13.44,13.44,0,0,1,2.6,2.66c.07,0,0-.47-.35-1.11a6.09,6.09,0,0,0-4.55-3C306.91,437.3,306.47,437.41,306.47,437.48Z" style="fill:#fff"/>
    <path d="M382.08,277.9c0,.92-6.78,85.33-9.38,90.85s-53.8,68.6-53.8,68.6l-21.37-14.73,45.38-65.77,1.27-61.61,10.52-24.16Z" style="fill:#263238"/>
    <path d="M318,261c-.53,1.29-7.58,21.4-8.11,29.95s15.25,160.19,15.25,160.19l26.06-2.08L344.43,302l11.25-30.91Z" style="fill:#263238"/>
    <path d="M347.28,293.7a1.07,1.07,0,0,1,0,.29c0,.21,0,.5,0,.87-.05.78-.12,1.91-.2,3.38-.2,3-.48,7.32-.83,12.83-.75,11.07-1.81,26.85-3.08,45.79v.06l0,.05-36.48,52.95-8.87,12.85-.06-.36L319,437.14l-.33.05L357.45,389c4.78-5.92,8.58-10.63,11.2-13.86,1.3-1.6,2.3-2.84,3-3.69l.78-.94.27-.31a3.61,3.61,0,0,1-.24.34l-.75,1-2.94,3.73-11.08,13.95-38.6,48.32-.14.18-.19-.13-21.38-14.71-.21-.15.15-.21,8.86-12.85,36.54-52.91,0,.11c1.35-18.93,2.48-34.71,3.27-45.78.41-5.51.73-9.84.95-12.82.11-1.47.2-2.59.26-3.38,0-.37.06-.65.08-.86A1.22,1.22,0,0,1,347.28,293.7Z" style="fill:#455a64"/>
    <path d="M345.7,436.39l-.54,19.78s19.93,7.19,20.18,10.86l-38.38.33-.42-30.85Z" style="fill:#263238"/>
    <path d="M333.28,454.61a1.57,1.57,0,0,0-1.07,1.8,1.51,1.51,0,0,0,1.78,1.07,1.65,1.65,0,0,0,1.12-1.91,1.56,1.56,0,0,0-2-.91" style="fill:#e0e0e0"/>
    <path d="M327,467.36l.08-3.11,36.77.84s1.71.73,1.53,1.94Z" style="fill:#455a64"/>
    <path d="M345.79,456c0,.19-1,.28-1.86.89s-1.4,1.4-1.58,1.33.1-1.16,1.22-1.88S345.82,455.8,345.79,456Z" style="fill:#fff"/>
    <path d="M349.83,457.6c0,.18-.77.51-1.4,1.31s-.81,1.63-1,1.63-.32-1.07.48-2.05S349.82,457.42,349.83,457.6Z" style="fill:#fff"/>
    <path d="M352.15,462.4c-.17,0-.44-.89,0-1.92s1.34-1.45,1.42-1.3-.45.71-.83,1.57S352.34,462.38,352.15,462.4Z" style="fill:#fff"/>
    <path d="M345.41,451.45c-.08.17-.94-.08-2,0s-1.88.42-2,.26.69-.83,1.94-.91S345.5,451.3,345.41,451.45Z" style="fill:#fff"/>
    <path d="M358.6,122.74a41.61,41.61,0,0,0-7.14-.13c-1.52.1-10,3.63-10.79,4.29s-12,9-12,9L333.3,143s4.64.22,6.54-1.87a29.23,29.23,0,0,0,3.68-5.87l2.94-.19s-2.27,1.8-1.89,2.84,1.74.39,1.74.39l.33.36a1.59,1.59,0,0,0,2.22.11c1.18-1.05,2.85-2.63,3-3.36.07-.3,0-2.52,0-2.52a2.91,2.91,0,0,0-.19-3.36,11.91,11.91,0,0,0-3-2.25l3.42-1.74S359.44,125.82,358.6,122.74Z" style="fill:#ffbf9d"/>
    <path d="M346.42,131.68a2.84,2.84,0,0,1,1.74.47,4.74,4.74,0,0,1,1.52,1.28,1.38,1.38,0,0,1,.3,1.27,3.58,3.58,0,0,1-.7,1.1c-.54.64-1,1.28-1.53,1.81a2.63,2.63,0,0,1-1.79.93,1.52,1.52,0,0,1-1.25-.56c-.2-.28-.17-.48-.14-.48s.08.16.29.35a1.47,1.47,0,0,0,1.08.33c1-.06,1.9-1.45,2.93-2.7,1.57-1.26-.14-2.47-.9-3S346.4,131.76,346.42,131.68Z" style="fill:#ff9a6c"/>
    <path d="M347.08,129.33a5,5,0,0,1,4.78,3.85,15.86,15.86,0,0,0-2.05-2.34A16.7,16.7,0,0,0,347.08,129.33Z" style="fill:#ff9a6c"/>
    <path d="M345.35,126.75a5.3,5.3,0,0,1,3.79.55,5.22,5.22,0,0,1,2.81,2.59,18.56,18.56,0,0,0-3-2.12A18.83,18.83,0,0,0,345.35,126.75Z" style="fill:#ff9a6c"/>
    <path d="M342.3,126a5.42,5.42,0,0,1,1-.51c.66-.29,1.63-.7,2.83-1.19s2.64-1.06,4.26-1.64a5.93,5.93,0,0,1,1.31-.38,13.2,13.2,0,0,1,1.41,0c.94,0,1.9.09,2.89.17s1.81.16,2.67.25l.24,0,0,.21a4.48,4.48,0,0,1-.06.63,2.05,2.05,0,0,1-.26.56,2.6,2.6,0,0,1-.89.77,6.13,6.13,0,0,1-2,.6,15.88,15.88,0,0,1-3.48.07l.09,0-2.66,1.31a4.47,4.47,0,0,1-1,.42,4.51,4.51,0,0,1,.91-.6l2.59-1.45,0,0h.06a16.76,16.76,0,0,0,3.38-.16,5.61,5.61,0,0,0,1.82-.58,1.59,1.59,0,0,0,.94-1.5l.23.24L356,123c-1-.07-1.94-.14-2.87-.17a11.87,11.87,0,0,0-1.34,0,6.49,6.49,0,0,0-1.21.34c-1.61.55-3.06,1.1-4.28,1.54l-2.89,1A4.19,4.19,0,0,1,342.3,126Z" style="fill:#ff9a6c"/>
    <path d="M421.19,186.67c.15.05-.33,1.56-.31,3.48s.52,3.42.37,3.47a5.81,5.81,0,0,1-.89-3.47A5.88,5.88,0,0,1,421.19,186.67Z" style="fill:#ff9a6c"/>
    <path d="M404.34,182.49,438.72,202s7,14.63,3,16.51-13.87.47-16.27-.11-36.83-9.27-36.83-9.27l4-30.67,9.11,2.87A13.75,13.75,0,0,1,404.34,182.49Z" style="fill:#455a64"/>
    <path d="M316.2,252.22c2.11-7.95,6.75-26.08,6.75-26.08l9.58-56.29L354,170l1.78-3.77a2,2,0,0,1,2.12-1.09l22.75,4.05a2,2,0,0,1,1.61,2.21l-.42,3,17.32,6.43L401,206.1l-13.95,57.42-.85,8.09a7,7,0,0,1-2.77,4.83L381,278.31l-62.88-14.52-1.55-4.26A12.33,12.33,0,0,1,316.2,252.22Z" style="fill:#455a64"/>
    <polygon points="382.08 276.96 381.49 285.45 314.27 269.79 316.68 258.88 382.08 276.96" style="fill:#455a64"/>
    <path d="M322.87,264.21a11.77,11.77,0,0,1-.12,3.46,11.48,11.48,0,0,1-.64,3.41,22.9,22.9,0,0,1,.76-6.87Z" style="fill:#263238"/>
    <path d="M333.56,266.68a12.34,12.34,0,0,1-.39,3.49,11.74,11.74,0,0,1-.9,3.38,11.88,11.88,0,0,1,.39-3.48A11.38,11.38,0,0,1,333.56,266.68Z" style="fill:#263238"/>
    <path d="M344.76,270a21.37,21.37,0,0,1-1.17,6.54,11,11,0,0,1,.33-3.31A10.88,10.88,0,0,1,344.76,270Z" style="fill:#263238"/>
    <path d="M358.76,273.26a27.38,27.38,0,0,1-1.37,7.4,27.38,27.38,0,0,1,1.37-7.4Z" style="fill:#263238"/>
    <path d="M371.85,276.25a12.52,12.52,0,0,1-.7,3.5,12.24,12.24,0,0,1-1.21,3.36,24.1,24.1,0,0,1,1.91-6.86Z" style="fill:#263238"/>
    <path d="M332.84,169.85l-3.44.05L311,165.75l25.36-18.07L327,133.43s-35.19,21.27-39.65,25.76c-9,9.06-5.16,19.11,3.92,23.92,2.7,1.44,38.76,15,38.76,15Z" style="fill:#455a64"/>
    <path d="M323.43,229.82c-.14,0,1.41-12,3.46-26.72s3.84-26.66,4-26.65-1.4,12-3.46,26.72S323.57,229.84,323.43,229.82Z" style="fill:#263238"/>
    <path d="M305.34,169.33a17,17,0,0,1,3.44-2.44,17.42,17.42,0,0,1,3.72-2,16.79,16.79,0,0,1-3.44,2.44A17.16,17.16,0,0,1,305.34,169.33Z" style="fill:#263238"/>
    <path d="M338.5,224.18s.13.13.32.4l.83,1.2c.75,1.12,1.77,2.62,3,4.45,2.54,3.75,6.12,8.89,10.24,14.45s8,10.46,10.87,14l3.39,4.16.91,1.14c.21.27.31.41.29.43A2.05,2.05,0,0,1,368,264c-.26-.29-.59-.64-1-1.08-.85-.94-2.06-2.32-3.52-4.06-2.93-3.46-6.87-8.35-11-13.91s-7.67-10.75-10.14-14.55c-1.24-1.91-2.21-3.46-2.87-4.55l-.75-1.25A2.55,2.55,0,0,1,338.5,224.18Z" style="fill:#263238"/>
    <path d="M345.85,210.52a8.9,8.9,0,0,1,.77,1.22c.52.88,1.18,2,2,3.38,1.66,2.85,4,6.78,6.63,11.06s5.16,8.09,7,10.84l2.16,3.26a7.42,7.42,0,0,1,.74,1.23,6.72,6.72,0,0,1-.91-1.11c-.56-.74-1.34-1.82-2.29-3.17-1.91-2.7-4.46-6.49-7.13-10.78s-4.93-8.25-6.51-11.15c-.79-1.46-1.41-2.64-1.82-3.47A7.06,7.06,0,0,1,345.85,210.52Z" style="fill:#263238"/>
    <path d="M354.54,170.06c0-.08,1.42.6,3.74,1.49a47.47,47.47,0,0,0,19,3.09c2.48-.11,4-.32,4-.23a4.53,4.53,0,0,1-1.06.24,29.32,29.32,0,0,1-2.94.36,41.75,41.75,0,0,1-19.17-3.12,28.75,28.75,0,0,1-2.68-1.27A4.13,4.13,0,0,1,354.54,170.06Z" style="fill:#263238"/>
    <g style="opacity:0.30000000000000004">
      <path d="M342,229.9a38.94,38.94,0,0,0,22.22,29.76Z"/>
    </g>
    <path d="M403.13,194.86c.14,0-1.56,7.5-3.8,16.68s-4.18,16.6-4.32,16.56,1.57-7.5,3.81-16.68S403,194.82,403.13,194.86Z" style="fill:#263238"/>
    <path d="M446.46,314.29h2.66a3.45,3.45,0,0,0,3.45-3.45V204.6a6.11,6.11,0,0,0-6.11-6.11h0Z" style="fill:#88A1D7"/>
    <path d="M414.95,187.22H444.7a0,0,0,0,1,0,0V438.7a14.88,14.88,0,0,1-14.88,14.88h0a14.88,14.88,0,0,1-14.88-14.88V187.22a0,0,0,0,1,0,0Z" transform="translate(859.64 640.8) rotate(180)" style="fill:#e0e0e0"/>
    <polygon points="414.95 308.57 444.7 339.6 444.7 352.94 414.95 322.66 414.95 308.57" style="fill:#fff"/>
    <polygon points="414.95 330.69 444.7 361.71 444.7 368.08 414.95 337.8 414.95 330.69" style="fill:#fff"/>
    <path d="M413.19,184.92h33.27a0,0,0,0,1,0,0v82.82A16.48,16.48,0,0,1,430,284.22h-.3a16.48,16.48,0,0,1-16.48-16.48V184.92a0,0,0,0,1,0,0Z" transform="translate(859.64 469.14) rotate(180)" style="fill:#88A1D7"/>
    <path d="M446.46,312.68c-.15,0-.26-24.81-.26-55.4s.11-55.41.26-55.41.26,24.8.26,55.41S446.6,312.68,446.46,312.68Z" style="fill:#263238"/>
    <path d="M423,453.58h13.66a8,8,0,0,1,8,8v6.21a0,0,0,0,1,0,0H414.95a0,0,0,0,1,0,0v-6.21A8,8,0,0,1,423,453.58Z" transform="translate(859.64 921.42) rotate(180)" style="fill:#88A1D7"/>
    <path d="M439.52,284.91c.15,0,.26,37.89.26,84.61s-.11,84.61-.26,84.61-.26-37.88-.26-84.61S439.38,284.91,439.52,284.91Z" style="fill:#263238"/>
    <path d="M429.82,284.91c.15,0,.26,37.89.26,84.61s-.11,84.61-.26,84.61-.26-37.88-.26-84.61S429.68,284.91,429.82,284.91Z" style="fill:#263238"/>
    <path d="M420.12,284.91c.14,0,.26,37.89.26,84.61s-.12,84.61-.26,84.61-.26-37.88-.26-84.61S420,284.91,420.12,284.91Z" style="fill:#263238"/>
    <path d="M437.56,181.61a3,3,0,0,0-3.29-.75,19.35,19.35,0,0,0-6.2,5.18s-2.67-1.34-3.47-.44-.92,2.28,1.37,3.93c0,0-.61,4,1.61,4.06s2.64-1.45,2.64-1.45-.31,3.23,3.91,1.91a3.12,3.12,0,0,0,1.6,1.91,2.93,2.93,0,0,0,2.13.09s.76,1.66,2.19,1.3a43.73,43.73,0,0,0,8-3.26,3.94,3.94,0,0,0,1.59-4.28c-.56-1.43-2.76-2.11-2.76-2.11a3.52,3.52,0,0,0-3.39-3A4.23,4.23,0,0,0,437.56,181.61Z" style="fill:#ffbf9d"/>
    <path d="M444.81,191.46a16.22,16.22,0,0,1-3.4,2.38c-1,.6-1.83,1.15-2.43,1.58s-1,.73-1,.68.21-.45.78-1a16.53,16.53,0,0,1,2.39-1.75A17.07,17.07,0,0,1,444.81,191.46Z" style="fill:#ff9a6c"/>
    <path d="M442.12,188.24a21.84,21.84,0,0,1-3.79,3.19,18.34,18.34,0,0,1-4.2,2.62,33.48,33.48,0,0,1,3.89-3A24.75,24.75,0,0,1,442.12,188.24Z" style="fill:#ff9a6c"/>
    <path d="M437.78,185.09c.08.13-1.91,1.43-4.12,3.33A23.58,23.58,0,0,0,431,191a7.57,7.57,0,0,0-.74,1.31c-.06,0-.13-.67.44-1.52a20.72,20.72,0,0,1,7.1-5.66Z" style="fill:#ff9a6c"/>
    <path d="M432.47,182c.11.14-1.81,1.55-3.74,3.69a24.1,24.1,0,0,0-2.21,2.93A6.21,6.21,0,0,0,426,190c-.06,0-.23-.65.21-1.56a15.81,15.81,0,0,1,2.15-3.11A13.68,13.68,0,0,1,432.47,182Z" style="fill:#ff9a6c"/>
  </g>
</svg>